<?xml version="1.0" encoding="UTF-8" standalone="no"?>
<!-- Created with Inkscape (http://www.inkscape.org/) -->

<svg
   width="81.91288mm"
   height="119.44059mm"
   viewBox="0 0 81.91288 119.44059"
   version="1.1"
   id="svg2714"
   inkscape:version="1.1.1 (3bf5ae0d25, 2021-09-20)"
   sodipodi:docname="sailor.svg"
   xmlns:inkscape="http://www.inkscape.org/namespaces/inkscape"
   xmlns:sodipodi="http://sodipodi.sourceforge.net/DTD/sodipodi-0.dtd"
   xmlns="http://www.w3.org/2000/svg"
   xmlns:svg="http://www.w3.org/2000/svg">
  <sodipodi:namedview
     id="namedview2716"
     pagecolor="#ffffff"
     bordercolor="#666666"
     borderopacity="1.0"
     inkscape:pageshadow="2"
     inkscape:pageopacity="0.0"
     inkscape:pagecheckerboard="0"
     inkscape:document-units="mm"
     showgrid="false"
     inkscape:zoom="0.73762626"
     inkscape:cx="151.16056"
     inkscape:cy="273.17357"
     inkscape:window-width="1920"
     inkscape:window-height="1012"
     inkscape:window-x="-8"
     inkscape:window-y="-8"
     inkscape:window-maximized="1"
     inkscape:current-layer="layer1" />
  <defs
     id="defs2711" />
  <g
     inkscape:label="Layer 1"
     inkscape:groupmode="layer"
     id="layer1"
     transform="translate(-64.858772,-76.225358)">
    <g
       id="g1088"
       transform="matrix(0.26458333,0,0,0.26458333,-92.62202,40.106029)">
      <path
         fill-rule="evenodd"
         clip-rule="evenodd"
         fill="#3c2415"
         d="m 636.482,428.771 c -5.69,-1.276 -10.774,-4.147 -14.752,-8.124 -5.472,-5.473 -8.862,-13.042 -8.862,-21.392 0,-8.349 3.391,-15.922 8.862,-21.396 1.827,-1.821 3.882,-3.413 6.122,-4.725 -29.885,-40.997 -10.12,-62.641 -0.892,-69.723 -22.071,-39.321 -30.765,-105.014 -31.63,-111.952 -0.085,-0.393 -0.127,-0.789 -0.127,-1.19 0,-6.113 8.345,-11.068 22.942,-14.629 12.799,-3.124 31.03,-5.752 52.828,-7.605 5.202,-4.937 10.868,-9.391 16.924,-13.29 17.91,-11.536 39.234,-18.231 62.101,-18.231 22.865,0 44.189,6.695 62.101,18.231 6.054,3.899 11.72,8.354 16.928,13.29 21.797,1.853 40.028,4.481 52.827,7.605 14.598,3.562 22.941,8.517 22.941,14.629 0,0.401 -0.041,0.797 -0.126,1.19 -0.866,6.938 -9.553,72.636 -31.629,111.956 9.231,7.092 28.974,28.74 -0.903,69.724 2.237,1.313 4.293,2.903 6.118,4.729 5.481,5.464 8.873,13.037 8.873,21.386 0,8.35 -3.392,15.923 -8.858,21.392 l -0.253,0.234 c -3.94,3.85 -8.936,6.646 -14.503,7.894 3.164,5.938 5.775,12.97 7.755,20.71 2.344,9.229 3.839,19.516 4.368,30.173 8.149,3.688 13.646,6.014 13.902,6.122 1.142,0.474 2.078,1.415 2.516,2.668 0.816,2.34 -0.423,4.906 -2.764,5.721 -4.701,1.637 -9.281,2.989 -13.731,4.094 -1.339,23.519 -7.524,47.178 -19.634,64.21 -10.955,15.409 -26.634,25.471 -47.801,25.471 h -58.01 -0.117 -0.119 -58.01 c -21.167,0 -36.846,-10.063 -47.801,-25.471 -12.109,-17.032 -18.295,-40.691 -19.633,-64.214 -4.45,-1.105 -9.029,-2.453 -13.728,-4.089 -2.34,-0.815 -3.58,-3.381 -2.764,-5.721 0.438,-1.253 1.375,-2.195 2.515,-2.668 0.253,-0.104 5.753,-2.43 13.899,-6.113 0.528,-10.661 2.024,-20.954 4.386,-30.178 1.968,-7.743 4.574,-14.781 7.739,-20.718 z"
         id="path1022" />
      <circle
         fill-rule="evenodd"
         clip-rule="evenodd"
         fill="#e9ceb3"
         cx="686.35498"
         cy="378.39499"
         r="9.5600004"
         id="circle1024" />
      <circle
         fill-rule="evenodd"
         clip-rule="evenodd"
         fill="#e9ceb3"
         cx="813.64203"
         cy="378.39499"
         r="9.5600004"
         id="circle1026" />
      <path
         fill-rule="evenodd"
         clip-rule="evenodd"
         fill="#c1a5a7"
         d="m 661.684,177.954 c -16.951,1.717 -31.117,3.908 -41.427,6.424 -10.004,2.438 -15.805,4.472 -16.026,5.815 l 0.05,0.414 c 1.046,3.062 16.161,6.618 40.061,9.932 l 2.479,0.337 c 4.042,-8.239 9.047,-15.935 14.863,-22.922 z m 191.498,22.923 2.479,-0.337 c 23.898,-3.309 39.015,-6.871 40.061,-9.932 l 0.049,-0.414 c -0.221,-1.344 -6.023,-3.377 -16.025,-5.815 -10.311,-2.516 -24.476,-4.707 -41.426,-6.424 5.814,6.986 10.818,14.677 14.862,22.922 z"
         id="path1028" />
      <path
         fill-rule="evenodd"
         clip-rule="evenodd"
         fill="#e9ceb3"
         d="m 741.361,258.884 c -2.488,0 -4.509,-2.019 -4.509,-4.508 0,-2.488 2.021,-4.508 4.509,-4.508 h 4.129 v -3.651 c 0,-2.489 2.021,-4.508 4.509,-4.508 2.487,0 4.508,2.019 4.508,4.508 v 3.651 h 4.129 c 2.489,0 4.508,2.02 4.508,4.508 0,2.489 -2.019,4.508 -4.508,4.508 h -4.129 v 24.548 c 2.042,-0.839 3.741,-2.2 5.135,-3.755 2.601,-2.899 4.269,-6.506 5.198,-8.98 0.864,-2.322 3.458,-3.507 5.78,-2.642 2.32,0.866 3.506,3.458 2.641,5.779 -1.194,3.187 -3.387,7.88 -6.93,11.829 -3.786,4.229 -9.029,7.592 -16.103,7.665 l -0.112,0.004 h -0.117 -0.119 c -5.604,-0.027 -10.07,-2.141 -13.6,-5.116 l -0.289,-0.23 c -4.937,-4.296 -7.809,-10.301 -9.246,-14.151 -0.866,-2.322 0.319,-4.914 2.642,-5.779 2.323,-0.865 4.914,0.32 5.78,2.642 1.09,2.917 3.223,7.434 6.739,10.491 l 0.203,0.194 c 1.001,0.834 2.123,1.551 3.381,2.064 v -24.561 h -4.129 z"
         id="path1030" />
      <path
         fill-rule="evenodd"
         clip-rule="evenodd"
         fill="#e9ceb3"
         d="m 785.207,170.173 c -2.245,-1.05 -3.214,-3.724 -2.163,-5.969 1.051,-2.245 3.723,-3.215 5.969,-2.164 6.348,2.97 13.321,6.898 19.99,11.978 6.734,5.13 13.199,11.478 18.478,19.25 1.39,2.051 0.857,4.847 -1.194,6.235 -2.052,1.389 -4.847,0.857 -6.234,-1.194 -4.662,-6.861 -10.446,-12.523 -16.506,-17.14 -6.132,-4.671 -12.528,-8.278 -18.34,-10.996 z"
         id="path1032" />
      <path
         fill-rule="evenodd"
         clip-rule="evenodd"
         fill="#e9ceb3"
         d="m 764.604,162.744 c -2.488,0 -4.508,-2.02 -4.508,-4.508 0,-2.489 2.02,-4.509 4.508,-4.509 0.014,0 4.504,0.794 10.582,2.8 2.361,0.776 3.642,3.327 2.867,5.689 -0.775,2.363 -3.328,3.643 -5.689,2.867 -5.077,-1.677 -7.76,-2.339 -7.76,-2.339 z"
         id="path1034" />
      <path
         fill-rule="evenodd"
         clip-rule="evenodd"
         fill="#e9ceb3"
         d="m 773.847,415.887 c 0.055,0.208 0.148,0.36 0.289,0.46 1.046,0.739 0.406,0.189 -0.289,-0.46 z"
         id="path1036" />
      <path
         fill-rule="evenodd"
         clip-rule="evenodd"
         fill="#e9ceb3"
         d="m 795.53,362.798 c -2.428,0.515 -4.822,-1.041 -5.337,-3.471 -0.514,-2.43 1.042,-4.824 3.471,-5.338 l 38.884,-8.246 c 2.43,-0.514 4.824,1.042 5.337,3.471 0.515,2.43 -1.04,4.824 -3.471,5.338 z"
         id="path1038" />
      <polygon
         fill-rule="evenodd"
         clip-rule="evenodd"
         fill="#e9ceb3"
         points="819.73,322.536 820.056,322.306 819.803,322.337 819.803,322.342 "
         id="polygon1040" />
      <path
         fill-rule="evenodd"
         clip-rule="evenodd"
         fill="#e9ceb3"
         d="m 725.853,416.347 c 0.148,-0.1 0.238,-0.252 0.293,-0.455 -0.7,0.653 -1.348,1.208 -0.293,0.455 z"
         id="path1042" />
      <path
         fill-rule="evenodd"
         clip-rule="evenodd"
         fill="#e9ceb3"
         d="m 706.331,353.989 c 2.432,0.514 3.985,2.908 3.472,5.338 -0.513,2.43 -2.907,3.986 -5.337,3.471 l -38.884,-8.245 c -2.43,-0.514 -3.985,-2.908 -3.471,-5.338 0.515,-2.429 2.907,-3.985 5.338,-3.471 z"
         id="path1044" />
      <polygon
         fill-rule="evenodd"
         clip-rule="evenodd"
         fill="#e9ceb3"
         points="680.271,322.541 680.193,322.342 680.193,322.337 679.945,322.311 "
         id="polygon1046" />
      <path
         fill-rule="evenodd"
         clip-rule="evenodd"
         fill="#6c292a"
         d="m 673.328,465.27 c -0.356,0.279 -0.754,0.5 -1.173,0.658 -14.191,7.908 -29.957,15.445 -41.498,20.729 h -0.004 l -0.1,0.045 -0.1,0.045 -0.041,0.018 -5.3,2.402 c 1.483,0.388 2.948,0.749 4.398,1.078 l 0.096,0.018 0.018,0.004 0.108,0.023 0.107,0.022 0.108,0.027 c 45.723,10.22 75.458,-7.434 78.223,-9.161 1.072,-0.771 2.475,-1.063 3.84,-0.681 20.897,5.888 35.499,5.865 37.698,5.825 h 0.004 l 0.055,-0.005 h 0.045 l 0.135,-0.004 h 0.037 0.014 0.012 0.037 l 0.135,0.004 h 0.046 l 0.054,0.005 h 0.004 c 2.196,0.045 16.808,0.067 37.703,-5.825 1.365,-0.382 2.768,-0.09 3.841,0.681 2.754,1.722 32.495,19.372 78.218,9.161 l 0.107,-0.027 0.107,-0.022 0.108,-0.023 0.022,-0.004 0.091,-0.018 c 1.446,-0.334 2.921,-0.69 4.405,-1.078 l -5.307,-2.402 -0.041,-0.018 -0.1,-0.045 -0.1,-0.045 h -0.004 c -11.545,-5.288 -27.319,-12.825 -41.521,-20.737 -0.4,-0.153 -0.775,-0.366 -1.122,-0.627 -10.725,-6.027 -20.453,-12.235 -26.635,-17.794 -4.797,3.548 -10.703,6.23 -16.396,8.705 -4.584,1.993 -7.406,4.959 -10.076,7.768 -5.237,5.504 -10.048,10.554 -23.36,10.612 l -0.112,0.005 h -0.117 -0.119 l -0.111,-0.005 c -13.305,-0.059 -18.113,-5.108 -23.353,-10.607 -2.669,-2.809 -5.5,-5.776 -10.085,-7.773 -5.685,-2.47 -11.586,-5.152 -16.396,-8.709 -6.179,5.553 -15.894,11.756 -26.605,17.775 z"
         id="path1048" />
      <path
         fill-rule="evenodd"
         clip-rule="evenodd"
         fill="#fabeac"
         d="m 680.193,322.342 0.077,0.199 c 0.085,0.072 0.104,0.126 0.05,0.144 -0.992,0.356 -2.467,0.974 -4.338,1.948 l -0.319,0.153 c -9.337,4.981 -25.566,18.082 -28.032,48.837 v 0.009 51.249 0.117 0.117 0.734 c 0.897,3.399 6.339,21.437 22.915,30.774 9.342,-5.307 17.645,-10.658 22.969,-15.424 -3.963,-5.414 -5.337,-12.148 -2.101,-20.94 5.314,-14.435 19.534,-11.717 29.642,-8.002 1.803,0.663 3.574,1.419 5.063,2.065 -0.361,-2.547 -1.722,-7.412 -1.849,-14.917 -0.135,-8.314 -0.311,-18.461 -0.311,-27.663 0,-23.086 -5.099,-25.476 -5.107,-25.48 -2.304,-0.92 -3.422,-3.543 -2.502,-5.847 0.92,-2.304 3.543,-3.422 5.847,-2.502 0.026,0.009 10.779,4.747 10.779,33.83 0,11.262 0.152,20.17 0.275,27.519 0.229,13.524 0.383,22.567 -2.165,24.407 -2.267,1.637 -4.376,0.721 -7.568,-0.676 -1.43,-0.622 -3.292,-1.442 -5.563,-2.276 -6.475,-2.381 -15.469,-4.454 -18.084,2.646 -2.401,6.524 -0.811,11.094 2.651,14.557 l 0.081,0.082 0.005,0.009 0.085,0.077 0.167,0.157 0.081,0.081 0.054,0.054 c 4.144,3.887 10.653,6.857 16.924,9.585 6.279,2.731 9.743,6.37 13.017,9.81 3.868,4.062 7.429,7.799 17.063,7.799 9.643,0 13.2,-3.732 17.072,-7.803 3.273,-3.44 6.73,-7.078 13.006,-9.805 6.482,-2.818 13.24,-5.906 17.38,-10.044 3.479,-3.463 5.065,-8.029 2.668,-14.557 -2.61,-7.096 -11.608,-5.027 -18.083,-2.646 -2.271,0.834 -4.134,1.655 -5.563,2.276 -3.197,1.397 -5.329,2.295 -7.573,0.686 -2.552,-1.853 -2.39,-10.892 -2.16,-24.416 0.122,-7.349 0.275,-16.257 0.275,-27.519 0,-29.083 10.752,-33.82 10.779,-33.83 2.304,-0.919 4.927,0.199 5.847,2.502 0.92,2.303 -0.199,4.927 -2.502,5.847 -0.01,0.004 -5.107,2.394 -5.107,25.48 0,9.201 -0.176,19.349 -0.312,27.663 -0.126,7.506 -1.497,12.366 -1.853,14.917 1.488,-0.649 3.26,-1.402 5.066,-2.065 10.107,-3.715 24.327,-6.433 29.642,8.002 3.236,8.8 1.862,15.531 -2.097,20.94 5.324,4.761 13.628,10.122 22.969,15.424 16.578,-9.337 22.015,-27.375 22.912,-30.774 v -0.734 -0.117 -0.117 -51.249 -0.009 c -2.466,-30.755 -18.695,-43.855 -28.033,-48.837 l -0.318,-0.153 c -1.871,-0.974 -3.342,-1.591 -4.338,-1.948 -0.059,-0.018 -0.031,-0.077 0.054,-0.149 l 0.072,-0.194 -0.067,0.005 c -19.691,2.475 -43.774,3.94 -69.736,3.94 -25.959,0 -50.041,-1.465 -69.738,-3.94 z"
         id="path1050" />
      <path
         fill-rule="evenodd"
         clip-rule="evenodd"
         fill="#dd9087"
         d="m 747.834,465.504 c 0.687,0.045 1.406,0.067 2.165,0.067 9.643,0 13.2,-3.732 17.072,-7.803 3.273,-3.44 6.73,-7.078 13.006,-9.805 6.482,-2.818 13.24,-5.906 17.38,-10.044 3.479,-3.463 5.065,-8.029 2.668,-14.557 -2.61,-7.096 -11.608,-5.027 -18.083,-2.646 -2.271,0.834 -4.134,1.655 -5.563,2.276 -3.197,1.397 -5.329,2.295 -7.573,0.686 -2.552,-1.853 -2.39,-10.892 -2.16,-24.416 0.122,-7.349 0.275,-16.257 0.275,-27.519 0,-28.627 10.419,-33.667 10.771,-33.825 -0.475,0.18 -15.554,6.091 -17.51,32.265 -1.988,26.589 -0.996,62.871 -0.996,74.552 0,11.681 -2.787,19.169 -11.452,20.769 z m 34.655,-120.076 c -8.729,25.183 6.992,55.46 6.992,55.46 33.302,-5.717 29.074,30.688 29.074,30.688 l 8.447,4.72 c 8.449,-4.973 14.165,-46.966 4.969,-77.532 -9.198,-30.566 -42.455,-33.654 -42.455,-33.654 v -0.004 c 10.861,-0.667 21.018,-1.604 30.219,-2.759 l 0.067,-0.005 -0.072,0.194 c -0.085,0.072 -0.112,0.131 -0.054,0.149 0.996,0.356 2.467,0.974 4.338,1.948 l 0.318,0.153 c 9.338,4.981 25.567,18.082 28.033,48.837 v 0.009 51.249 0.117 0.117 0.734 c -0.897,3.399 -6.334,21.437 -22.912,30.774 -9.341,-5.302 -17.645,-10.663 -22.969,-15.424 3.959,-5.409 5.333,-12.14 2.097,-20.94 -5.314,-14.435 -19.534,-11.717 -29.642,-8.002 -1.807,0.663 -3.578,1.416 -5.066,2.065 0.355,-2.552 1.727,-7.412 1.853,-14.917 0.136,-8.314 0.312,-18.461 0.312,-27.663 0,-23.086 5.098,-25.476 5.107,-25.48 0.509,-0.202 0.96,-0.486 1.344,-0.834 z"
         id="path1052" />
      <path
         fill-rule="evenodd"
         clip-rule="evenodd"
         fill="#6c292a"
         d="m 633.565,500.226 c 1.523,21.139 7.173,42.043 17.834,57.038 9.318,13.104 22.6,21.666 40.471,21.666 h 58.01 0.119 0.117 58.01 c 17.871,0 31.152,-8.562 40.471,-21.666 10.662,-14.995 16.311,-35.895 17.834,-57.034 -41.822,7.592 -70.643,-6.492 -77.859,-10.558 -22.316,6.041 -37.554,5.689 -38.523,5.658 h -0.037 -0.012 -0.014 -0.037 c -0.973,0.031 -16.207,0.379 -38.518,-5.658 -7.218,4.066 -36.039,18.146 -77.866,10.554 z m 8.733,-62.831 c -1.881,4.278 -3.503,9.098 -4.833,14.31 -1.879,7.294 -3.178,15.323 -3.837,23.704 8.529,-3.984 18.435,-8.799 27.934,-13.853 -10.063,-7.187 -15.987,-16.934 -19.264,-24.161 z m 224.07,38.004 c -0.658,-8.376 -1.951,-16.406 -3.818,-23.695 -1.338,-5.211 -2.967,-10.031 -4.852,-14.31 -3.277,7.227 -9.201,16.965 -19.259,24.155 9.499,5.051 19.4,9.866 27.929,13.85 z"
         id="path1054" />
      <path
         fill-rule="evenodd"
         clip-rule="evenodd"
         fill="#5b1d20"
         d="m 642.352,540.448 c 2.475,6.126 5.482,11.802 9.048,16.816 9.318,13.104 22.6,21.666 40.471,21.666 h 58.01 0.119 0.117 58.01 c 17.871,0 31.152,-8.562 40.471,-21.666 10.662,-14.995 16.311,-35.895 17.834,-57.034 -19.451,3.53 -36.088,2.372 -49.048,-0.284 -0.925,17.186 -6.24,34.136 -22.451,39.244 -25.761,8.12 -107.405,4.207 -152.581,1.258 z m 224.016,-65.049 c -0.658,-8.376 -1.951,-16.406 -3.818,-23.695 -1.338,-5.211 -2.967,-10.031 -4.852,-14.31 -3.277,7.227 -9.201,16.965 -19.259,24.155 9.499,5.051 19.4,9.866 27.929,13.85 z"
         id="path1056" />
      <path
         fill-rule="evenodd"
         clip-rule="evenodd"
         fill="#ffffff"
         d="m 635.778,301.09 c 0.519,0.383 0.966,0.884 1.289,1.488 l 0.022,0.041 c 3.918,3.115 15.355,6.257 31.801,8.998 21.036,3.499 49.591,5.653 81.108,5.653 31.512,0 60.075,-2.154 81.106,-5.653 16.45,-2.74 27.892,-5.892 31.81,-9.007 l 0.014,-0.031 c 0.324,-0.604 0.771,-1.105 1.293,-1.488 l 0.112,-0.307 0.425,-1.005 c 17.307,-30.277 26.25,-78.073 29.551,-99.306 -8.281,3.678 -21.139,6.726 -37.413,8.976 l -5.621,0.739 -0.113,0.018 -0.108,0.013 -0.107,0.009 -0.113,0.014 c -26.818,3.327 -62.168,5.36 -100.834,5.36 -38.663,0 -74.017,-2.029 -100.831,-5.36 l -0.112,-0.014 -0.109,-0.009 -0.107,-0.013 -0.112,-0.018 -5.622,-0.739 c -16.275,-2.254 -29.133,-5.302 -37.413,-8.976 3.296,21.233 12.239,69.029 29.555,99.306 l 0.425,1.019 z"
         id="path1058" />
      <path
         fill-rule="evenodd"
         clip-rule="evenodd"
         fill="#bddcdf"
         d="m 786.14,316.283 c 17.037,-0.96 32.355,-2.57 44.966,-4.667 16.45,-2.74 27.892,-5.892 31.81,-9.007 l 0.014,-0.031 c 0.324,-0.604 0.771,-1.105 1.293,-1.488 l 0.112,-0.307 0.425,-1.005 c 17.307,-30.277 26.25,-78.073 29.551,-99.306 -8.281,3.678 -21.139,6.726 -37.413,8.976 l -5.621,0.739 -0.113,0.018 -0.108,0.013 -0.107,0.009 -0.113,0.014 c -5.373,0.667 -11.095,1.28 -17.113,1.839 6.15,26.207 7.837,73.886 -47.583,104.203 z"
         id="path1060" />
      <path
         fill-rule="evenodd"
         clip-rule="evenodd"
         fill="#cd9843"
         d="m 635.778,301.09 c 0.519,0.383 0.966,0.884 1.289,1.488 l 0.022,0.041 c 3.918,3.115 15.355,6.257 31.801,8.998 21.036,3.499 49.591,5.653 81.108,5.653 31.512,0 60.075,-2.154 81.106,-5.653 16.45,-2.74 27.892,-5.892 31.81,-9.007 l 0.014,-0.031 c 0.324,-0.604 0.771,-1.105 1.293,-1.488 l 0.112,-0.307 0.425,-1.005 c 3.48,-6.091 6.627,-12.894 9.453,-20.044 -94.319,37.59 -200.921,15.139 -247.702,1.804 2.642,6.492 5.546,12.663 8.736,18.24 l 0.425,1.019 z"
         id="path1062" />
      <path
         fill-rule="evenodd"
         clip-rule="evenodd"
         fill="#9c7335"
         d="m 786.14,316.283 c 17.037,-0.96 32.355,-2.57 44.966,-4.667 16.45,-2.74 27.892,-5.892 31.81,-9.007 l 0.014,-0.031 c 0.324,-0.604 0.771,-1.105 1.293,-1.488 l 0.112,-0.307 0.425,-1.005 c 3.48,-6.091 6.627,-12.894 9.453,-20.044 -20.069,7.998 -40.69,13.272 -61.18,16.5 -6.949,7.179 -15.762,13.959 -26.893,20.049 z"
         id="path1064" />
      <path
         fill-rule="evenodd"
         clip-rule="evenodd"
         fill="#167176"
         d="m 891.637,216.007 c 1.127,-6 2.015,-11.297 2.673,-15.535 -8.281,3.678 -21.139,6.726 -37.413,8.976 l -5.621,0.739 -0.113,0.018 -0.108,0.013 -0.107,0.009 -0.113,0.014 c -26.818,3.327 -62.168,5.36 -100.834,5.36 -38.663,0 -74.017,-2.029 -100.831,-5.36 l -0.112,-0.014 -0.109,-0.009 -0.107,-0.013 -0.112,-0.018 -5.622,-0.739 c -16.275,-2.254 -29.133,-5.302 -37.413,-8.976 0.712,4.594 1.69,10.436 2.962,17.068 45.668,10.684 163.908,31.715 282.98,-1.533 z"
         id="path1066" />
      <path
         fill-rule="evenodd"
         clip-rule="evenodd"
         fill="#004548"
         d="m 891.637,216.007 c 1.127,-6 2.015,-11.297 2.673,-15.535 -8.281,3.678 -21.139,6.726 -37.413,8.976 l -5.621,0.739 -0.113,0.018 -0.108,0.013 -0.107,0.009 -0.113,0.014 c -5.379,0.667 -11.099,1.28 -17.117,1.839 1.09,4.648 2.047,9.981 2.561,15.765 18.251,-2.79 36.793,-6.653 55.358,-11.838 z"
         id="path1068" />
      <path
         fill-rule="evenodd"
         clip-rule="evenodd"
         fill="#6c292a"
         d="m 636.506,369.728 c 0.824,-0.186 1.662,-0.339 2.509,-0.451 3.192,-27.289 16.479,-41.774 26.915,-49.041 -14.827,-2.57 -26.229,-6.055 -32.811,-10.211 -6.605,4.752 -24.764,22.461 3.387,59.703 z m 224.475,-0.451 c 0.848,0.112 1.687,0.265 2.512,0.451 28.134,-37.22 10.008,-54.938 3.393,-59.697 -6.586,4.156 -17.982,7.641 -32.818,10.206 10.435,7.266 23.721,21.752 26.913,49.04 z"
         id="path1070" />
      <path
         fill-rule="evenodd"
         clip-rule="evenodd"
         fill="#5b1d20"
         d="m 860.981,369.277 c 0.848,0.112 1.687,0.265 2.512,0.451 28.134,-37.22 10.008,-54.938 3.393,-59.697 -6.586,4.156 -17.982,7.641 -32.818,10.206 10.435,7.266 23.721,21.752 26.913,49.04 z"
         id="path1072" />
      <path
         fill-rule="evenodd"
         clip-rule="evenodd"
         fill="#dd9087"
         d="m 638.632,378.487 c -4.069,0.87 -7.703,2.904 -10.526,5.729 -3.841,3.86 -6.222,9.175 -6.222,15.04 0,5.861 2.381,11.176 6.222,15.018 2.827,2.826 6.451,4.859 10.509,5.739 z m 222.75,41.525 c 3.959,-0.853 7.508,-2.804 10.303,-5.509 l 0.211,-0.229 c 3.837,-3.837 6.217,-9.152 6.217,-15.018 0,-5.865 -2.38,-11.18 -6.221,-15.021 -2.824,-2.836 -6.456,-4.874 -10.527,-5.748 z"
         id="path1074" />
      <path
         fill-rule="evenodd"
         clip-rule="evenodd"
         fill="#ffffff"
         d="m 824.095,175.777 -0.008,-0.004 -0.077,-0.072 -0.082,-0.077 -0.131,-0.136 c -5.049,-4.914 -10.607,-9.332 -16.558,-13.168 -16.49,-10.621 -36.146,-16.789 -57.24,-16.789 -21.095,0 -40.751,6.167 -57.242,16.789 -5.95,3.832 -11.49,8.246 -16.545,13.159 l -0.296,0.294 -0.087,0.072 c -7.771,7.636 -14.372,16.468 -19.502,26.183 25.565,2.845 58.147,4.558 93.672,4.558 35.523,0 68.104,-1.713 93.676,-4.558 -5.145,-9.751 -11.772,-18.601 -19.58,-26.251 z"
         id="path1076" />
      <path
         fill-rule="evenodd"
         clip-rule="evenodd"
         fill="#bddcdf"
         d="m 824.095,175.777 -0.008,-0.004 -0.077,-0.072 -0.082,-0.077 -0.131,-0.136 c -5.049,-4.914 -10.607,-9.332 -16.558,-13.168 -16.49,-10.621 -36.146,-16.789 -57.24,-16.789 -6.713,0 -13.276,0.627 -19.643,1.817 0.185,0.05 47.732,13.417 46.286,58.909 25.109,-0.622 48.012,-2.115 67.032,-4.229 -5.144,-9.751 -11.771,-18.601 -19.579,-26.251 z"
         id="path1078" />
      <path
         fill-rule="evenodd"
         clip-rule="evenodd"
         fill="#3c2415"
         d="m 824.095,175.777 -0.008,-0.004 -0.077,-0.072 -0.082,-0.077 -0.131,-0.136 c -5.049,-4.914 -10.607,-9.332 -16.558,-13.168 -16.49,-10.621 -36.146,-16.789 -57.24,-16.789 -21.095,0 -40.751,6.167 -57.242,16.789 -5.95,3.832 -11.49,8.246 -16.545,13.159 l -0.296,0.294 -0.087,0.072 c -7.771,7.636 -14.372,16.468 -19.502,26.183 25.565,2.845 58.147,4.558 93.672,4.558 35.523,0 68.104,-1.713 93.676,-4.558 -5.145,-9.751 -11.772,-18.601 -19.58,-26.251 z m 21.865,338.695 c 0.329,-2.457 2.596,-4.184 5.053,-3.854 2.457,0.328 4.185,2.597 3.855,5.054 -0.019,0.136 -5.83,50.063 -46.416,50.063 h -24.723 c -2.49,0 -4.51,-2.019 -4.51,-4.508 0,-2.488 2.02,-4.508 4.51,-4.508 h 24.723 c 32.544,-0.001 37.493,-42.134 37.508,-42.247 z m -78.866,42.246 c 2.488,0 4.509,2.02 4.509,4.508 0,2.489 -2.021,4.508 -4.509,4.508 H 757.5 c -2.488,0 -4.508,-2.019 -4.508,-4.508 0,-2.488 2.02,-4.508 4.508,-4.508 z M 638.632,378.487 c -4.069,0.87 -7.703,2.904 -10.526,5.729 -3.841,3.86 -6.222,9.175 -6.222,15.04 0,5.861 2.381,11.176 6.222,15.018 2.827,2.826 6.451,4.859 10.509,5.739 z m -2.15,50.284 c -5.69,-1.276 -10.774,-4.147 -14.752,-8.124 -5.472,-5.473 -8.862,-13.042 -8.862,-21.392 0,-8.349 3.391,-15.922 8.862,-21.396 1.827,-1.821 3.882,-3.413 6.122,-4.725 -29.885,-40.997 -10.12,-62.641 -0.892,-69.723 -22.071,-39.321 -30.765,-105.014 -31.63,-111.952 -0.085,-0.393 -0.127,-0.789 -0.127,-1.19 0,-6.113 8.345,-11.068 22.942,-14.629 12.799,-3.124 31.03,-5.752 52.828,-7.605 5.202,-4.937 10.868,-9.391 16.924,-13.29 17.91,-11.536 39.234,-18.231 62.101,-18.231 22.865,0 44.189,6.695 62.101,18.231 6.054,3.899 11.72,8.354 16.928,13.29 21.797,1.853 40.028,4.481 52.827,7.605 14.598,3.562 22.941,8.517 22.941,14.629 0,0.401 -0.041,0.797 -0.126,1.19 -0.866,6.938 -9.553,72.636 -31.629,111.956 9.231,7.092 28.974,28.74 -0.903,69.724 2.237,1.313 4.293,2.903 6.118,4.729 5.481,5.464 8.873,13.037 8.873,21.386 0,8.35 -3.392,15.923 -8.858,21.392 l -0.253,0.234 c -3.94,3.85 -8.936,6.646 -14.503,7.894 3.164,5.938 5.775,12.97 7.755,20.71 2.344,9.229 3.839,19.516 4.368,30.173 8.149,3.688 13.646,6.014 13.902,6.122 1.142,0.474 2.078,1.415 2.516,2.668 0.816,2.34 -0.423,4.906 -2.764,5.721 -4.701,1.637 -9.281,2.989 -13.731,4.094 -1.339,23.519 -7.524,47.178 -19.634,64.21 -10.955,15.409 -26.634,25.471 -47.801,25.471 h -58.01 -0.117 -0.119 -58.01 c -21.167,0 -36.846,-10.063 -47.801,-25.471 -12.109,-17.032 -18.295,-40.691 -19.633,-64.214 -4.45,-1.105 -9.029,-2.453 -13.728,-4.089 -2.34,-0.815 -3.58,-3.381 -2.764,-5.721 0.438,-1.253 1.375,-2.195 2.515,-2.668 0.253,-0.104 5.753,-2.43 13.899,-6.113 0.528,-10.661 2.024,-20.954 4.386,-30.178 1.968,-7.743 4.574,-14.781 7.739,-20.718 z m 0.024,-59.043 c 0.824,-0.186 1.662,-0.339 2.509,-0.451 3.192,-27.289 16.479,-41.774 26.915,-49.041 -14.827,-2.57 -26.229,-6.055 -32.811,-10.211 -6.605,4.752 -24.764,22.461 3.387,59.703 z m -0.728,-68.638 -0.107,-0.292 -0.425,-1.019 c -17.315,-30.277 -26.259,-78.073 -29.555,-99.306 8.28,3.674 21.138,6.721 37.413,8.976 l 5.622,0.739 0.112,0.018 0.107,0.013 0.109,0.009 0.112,0.014 c 26.814,3.331 62.168,5.36 100.831,5.36 38.666,0 74.016,-2.033 100.834,-5.36 l 0.113,-0.014 0.107,-0.009 0.108,-0.013 0.113,-0.018 5.621,-0.739 c 16.274,-2.25 29.132,-5.297 37.413,-8.976 -3.301,21.233 -12.244,69.029 -29.551,99.306 l -0.425,1.005 -0.112,0.307 c -0.521,0.383 -0.969,0.884 -1.293,1.488 l -0.014,0.031 c -3.918,3.115 -15.359,6.267 -31.81,9.007 -21.031,3.499 -49.595,5.653 -81.106,5.653 -31.518,0 -60.072,-2.154 -81.108,-5.653 -16.445,-2.74 -27.883,-5.883 -31.801,-8.998 l -0.022,-0.041 c -0.32,-0.603 -0.767,-1.104 -1.286,-1.488 z m -2.213,199.136 c 1.523,21.139 7.173,42.043 17.834,57.038 9.318,13.104 22.6,21.666 40.471,21.666 h 58.01 0.119 0.117 58.01 c 17.871,0 31.152,-8.562 40.471,-21.666 10.662,-14.995 16.311,-35.895 17.834,-57.034 -41.822,7.592 -70.643,-6.492 -77.859,-10.558 -22.316,6.041 -37.554,5.689 -38.523,5.658 h -0.037 -0.012 -0.014 -0.037 c -0.973,0.031 -16.207,0.379 -38.518,-5.658 -7.218,4.066 -36.039,18.146 -77.866,10.554 z m 8.733,-62.831 c -1.881,4.278 -3.503,9.098 -4.833,14.31 -1.879,7.294 -3.178,15.323 -3.837,23.704 8.529,-3.984 18.435,-8.799 27.934,-13.853 -10.063,-7.187 -15.987,-16.934 -19.264,-24.161 z m 37.895,-115.053 0.077,0.199 c 0.085,0.072 0.104,0.126 0.05,0.144 -0.992,0.356 -2.467,0.974 -4.338,1.948 l -0.319,0.153 c -9.337,4.981 -25.566,18.082 -28.032,48.837 v 0.009 51.249 0.117 0.117 0.734 c 0.897,3.399 6.339,21.437 22.915,30.774 9.342,-5.307 17.645,-10.658 22.969,-15.424 -3.963,-5.414 -5.337,-12.148 -2.101,-20.94 5.314,-14.435 19.534,-11.717 29.642,-8.002 1.803,0.663 3.574,1.419 5.063,2.065 -0.361,-2.547 -1.722,-7.412 -1.849,-14.917 -0.135,-8.314 -0.311,-18.461 -0.311,-27.663 0,-23.086 -5.099,-25.476 -5.107,-25.48 -2.304,-0.92 -3.422,-3.543 -2.502,-5.847 0.92,-2.304 3.543,-3.422 5.847,-2.502 0.026,0.009 10.779,4.747 10.779,33.83 0,11.262 0.152,20.17 0.275,27.519 0.229,13.524 0.383,22.567 -2.165,24.407 -2.267,1.637 -4.376,0.721 -7.568,-0.676 -1.43,-0.622 -3.292,-1.442 -5.563,-2.276 -6.475,-2.381 -15.469,-4.454 -18.084,2.646 -2.401,6.524 -0.811,11.094 2.651,14.557 l 0.081,0.082 0.005,0.009 0.085,0.077 0.167,0.157 0.081,0.081 0.054,0.054 c 4.144,3.887 10.653,6.857 16.924,9.585 6.279,2.731 9.743,6.37 13.017,9.81 3.868,4.062 7.429,7.799 17.063,7.799 9.643,0 13.2,-3.732 17.072,-7.803 3.273,-3.44 6.73,-7.078 13.006,-9.805 6.482,-2.818 13.24,-5.906 17.38,-10.044 3.479,-3.463 5.065,-8.029 2.668,-14.557 -2.61,-7.096 -11.608,-5.027 -18.083,-2.646 -2.271,0.834 -4.134,1.655 -5.563,2.276 -3.197,1.397 -5.329,2.295 -7.573,0.686 -2.552,-1.853 -2.39,-10.892 -2.16,-24.416 0.122,-7.349 0.275,-16.257 0.275,-27.519 0,-29.083 10.752,-33.82 10.779,-33.83 2.304,-0.919 4.927,0.199 5.847,2.502 0.92,2.303 -0.199,4.927 -2.502,5.847 -0.01,0.004 -5.107,2.394 -5.107,25.48 0,9.201 -0.176,19.349 -0.312,27.663 -0.126,7.506 -1.497,12.366 -1.853,14.917 1.488,-0.649 3.26,-1.402 5.066,-2.065 10.107,-3.715 24.327,-6.433 29.642,8.002 3.236,8.8 1.862,15.531 -2.097,20.94 5.324,4.761 13.628,10.122 22.969,15.424 16.578,-9.337 22.015,-27.375 22.912,-30.774 v -0.734 -0.117 -0.117 -51.249 -0.009 c -2.466,-30.755 -18.695,-43.855 -28.033,-48.837 l -0.318,-0.153 c -1.871,-0.974 -3.342,-1.591 -4.338,-1.948 -0.059,-0.018 -0.031,-0.077 0.054,-0.149 l 0.072,-0.194 -0.067,0.005 c -19.691,2.475 -43.774,3.94 -69.736,3.94 -25.959,0 -50.041,-1.465 -69.738,-3.94 z m -6.865,142.928 c -0.356,0.279 -0.754,0.5 -1.173,0.658 -14.191,7.908 -29.957,15.445 -41.498,20.729 h -0.004 l -0.1,0.045 -0.1,0.045 -0.041,0.018 -5.3,2.402 c 1.483,0.388 2.948,0.749 4.398,1.078 l 0.096,0.018 0.018,0.004 0.108,0.023 0.107,0.022 0.108,0.027 c 45.723,10.22 75.458,-7.434 78.223,-9.161 1.072,-0.771 2.475,-1.063 3.84,-0.681 20.897,5.888 35.499,5.865 37.698,5.825 h 0.004 l 0.055,-0.005 h 0.045 l 0.135,-0.004 h 0.037 0.014 0.012 0.037 l 0.135,0.004 h 0.046 l 0.054,0.005 h 0.004 c 2.196,0.045 16.808,0.067 37.703,-5.825 1.365,-0.382 2.768,-0.09 3.841,0.681 2.754,1.722 32.495,19.372 78.218,9.161 l 0.107,-0.027 0.107,-0.022 0.108,-0.023 0.022,-0.004 0.091,-0.018 c 1.446,-0.334 2.921,-0.69 4.405,-1.078 l -5.307,-2.402 -0.041,-0.018 -0.1,-0.045 -0.1,-0.045 h -0.004 c -11.545,-5.288 -27.319,-12.825 -41.521,-20.737 -0.4,-0.153 -0.775,-0.366 -1.122,-0.627 -10.725,-6.027 -20.453,-12.235 -26.635,-17.794 -4.797,3.548 -10.703,6.23 -16.396,8.705 -4.584,1.993 -7.406,4.959 -10.076,7.768 -5.237,5.504 -10.048,10.554 -23.36,10.612 l -0.112,0.005 h -0.117 -0.119 l -0.111,-0.005 c -13.305,-0.059 -18.113,-5.108 -23.353,-10.607 -2.669,-2.809 -5.5,-5.776 -10.085,-7.773 -5.685,-2.47 -11.586,-5.152 -16.396,-8.709 -6.179,5.553 -15.894,11.756 -26.605,17.775 z m 6.617,-142.959 0.325,0.23 -0.077,-0.199 v -0.004 z m 26.386,31.678 -38.882,-8.246 c -2.431,-0.514 -4.823,1.042 -5.338,3.471 -0.515,2.43 1.041,4.824 3.471,5.338 l 38.884,8.245 c 2.43,0.515 4.823,-1.041 5.337,-3.471 0.514,-2.43 -1.04,-4.823 -3.472,-5.337 z m 19.522,62.358 c 0.148,-0.1 0.238,-0.252 0.293,-0.455 -0.7,0.653 -1.348,1.208 -0.293,0.455 z m 135.128,-47.07 c 0.848,0.112 1.687,0.265 2.512,0.451 28.134,-37.22 10.008,-54.938 3.393,-59.697 -6.586,4.156 -17.982,7.641 -32.818,10.206 10.435,7.266 23.721,21.752 26.913,49.04 z m 0.401,50.735 c 3.959,-0.853 7.508,-2.804 10.303,-5.509 l 0.211,-0.229 c 3.837,-3.837 6.217,-9.152 6.217,-15.018 0,-5.865 -2.38,-11.18 -6.221,-15.021 -2.824,-2.836 -6.456,-4.874 -10.527,-5.748 z m 4.986,55.387 c -0.658,-8.376 -1.951,-16.406 -3.818,-23.695 -1.338,-5.211 -2.967,-10.031 -4.852,-14.31 -3.277,7.227 -9.201,16.965 -19.259,24.155 9.499,5.051 19.4,9.866 27.929,13.85 z m -46.565,-153.057 -0.072,0.194 0.325,-0.23 -0.253,0.032 z m -24.273,40.456 38.884,-8.245 c 2.431,-0.514 3.985,-2.908 3.471,-5.338 -0.513,-2.429 -2.907,-3.985 -5.337,-3.471 l -38.884,8.246 c -2.429,0.514 -3.984,2.908 -3.471,5.338 0.515,2.429 2.91,3.985 5.337,3.47 z m -21.683,53.089 c 0.055,0.208 0.148,0.36 0.289,0.46 1.046,0.739 0.406,0.189 -0.289,-0.46 z m -9.243,-253.143 c -2.488,0 -4.508,-2.02 -4.508,-4.508 0,-2.489 2.02,-4.509 4.508,-4.509 0.014,0 4.504,0.794 10.582,2.8 2.361,0.776 3.642,3.327 2.867,5.689 -0.775,2.363 -3.328,3.643 -5.689,2.867 -5.077,-1.677 -7.76,-2.339 -7.76,-2.339 z m 20.603,7.429 c -2.245,-1.05 -3.214,-3.724 -2.163,-5.969 1.051,-2.245 3.723,-3.215 5.969,-2.164 6.348,2.97 13.321,6.898 19.99,11.978 6.734,5.13 13.199,11.478 18.478,19.25 1.39,2.051 0.857,4.847 -1.194,6.235 -2.052,1.389 -4.847,0.857 -6.234,-1.194 -4.662,-6.861 -10.446,-12.523 -16.506,-17.14 -6.132,-4.671 -12.528,-8.278 -18.34,-10.996 z m -43.846,88.711 h 4.129 v 24.561 c -1.258,-0.514 -2.38,-1.23 -3.381,-2.064 l -0.203,-0.194 c -3.517,-3.057 -5.649,-7.574 -6.739,-10.491 -0.866,-2.322 -3.458,-3.507 -5.78,-2.642 -2.322,0.865 -3.508,3.458 -2.642,5.779 1.438,3.85 4.31,9.855 9.246,14.151 l 0.289,0.23 c 3.529,2.975 7.996,5.089 13.6,5.116 h 0.119 0.117 l 0.112,-0.004 c 7.073,-0.073 12.316,-3.436 16.103,-7.665 3.543,-3.949 5.735,-8.642 6.93,-11.829 0.865,-2.322 -0.32,-4.914 -2.641,-5.779 -2.322,-0.866 -4.916,0.32 -5.78,2.642 -0.93,2.475 -2.598,6.082 -5.198,8.98 -1.394,1.555 -3.093,2.917 -5.135,3.755 v -24.548 h 4.129 c 2.489,0 4.508,-2.019 4.508,-4.508 0,-2.488 -2.019,-4.508 -4.508,-4.508 h -4.129 v -3.651 c 0,-2.489 -2.021,-4.508 -4.508,-4.508 -2.488,0 -4.509,2.019 -4.509,4.508 v 3.651 h -4.129 c -2.488,0 -4.509,2.02 -4.509,4.508 10e-4,2.491 2.021,4.51 4.509,4.51 z m -79.677,-80.93 c -5.815,6.987 -10.82,14.683 -14.864,22.923 l -2.479,-0.337 c -23.899,-3.314 -39.015,-6.871 -40.061,-9.932 l -0.05,-0.414 c 0.222,-1.344 6.022,-3.377 16.026,-5.815 10.31,-2.517 24.476,-4.708 41.428,-6.425 z m 191.498,22.923 c -4.044,-8.245 -9.048,-15.937 -14.862,-22.923 16.95,1.717 31.115,3.908 41.426,6.424 10.002,2.438 15.805,4.472 16.025,5.815 l -0.049,0.414 c -1.046,3.062 -16.162,6.623 -40.061,9.932 z"
         id="path1080" />
      <path
         fill-rule="evenodd"
         clip-rule="evenodd"
         fill="#3c2415"
         d="m 813.642,387.953 c 5.264,0 9.558,-4.294 9.558,-9.559 0,-5.266 -4.294,-9.559 -9.558,-9.559 -5.267,0 -9.561,4.293 -9.561,9.559 0,5.265 4.294,9.559 9.561,9.559 z"
         id="path1082" />
      <path
         fill-rule="evenodd"
         clip-rule="evenodd"
         fill="#3c2415"
         d="m 686.357,387.953 c 5.265,0 9.56,-4.294 9.56,-9.559 0,-5.266 -4.295,-9.559 -9.56,-9.559 -5.265,0 -9.561,4.293 -9.561,9.559 10e-4,5.265 4.297,9.559 9.561,9.559 z"
         id="path1084" />
      <path
         fill-rule="evenodd"
         clip-rule="evenodd"
         fill="#ffffff"
         d="m 643.456,510.626 c -0.211,-1.222 0.609,-2.395 1.831,-2.606 1.221,-0.211 2.394,0.609 2.604,1.831 l 0.434,2.479 c 0.211,1.222 -0.609,2.394 -1.83,2.605 -1.222,0.212 -2.395,-0.608 -2.605,-1.83 z m 2.886,12.984 c -0.335,-1.195 0.36,-2.439 1.555,-2.772 1.195,-0.334 2.438,0.36 2.773,1.555 2.304,8.2 6.27,18.961 12.632,27.64 4.468,6.095 10.134,11.176 17.226,13.542 1.173,0.392 1.807,1.668 1.415,2.84 -0.392,1.172 -1.668,1.808 -2.84,1.415 -8.097,-2.705 -14.467,-8.372 -19.427,-15.138 -6.752,-9.21 -10.927,-20.503 -13.334,-29.082 z"
         id="path1086" />
    </g>
  </g>
</svg>
