<?xml version="1.0" encoding="UTF-8" standalone="no"?>
<!-- Created with Inkscape (http://www.inkscape.org/) -->

<svg
   width="72.038933mm"
   height="106.31026mm"
   viewBox="0 0 72.038933 106.31026"
   version="1.1"
   id="svg2140"
   inkscape:version="1.1.1 (3bf5ae0d25, 2021-09-20)"
   sodipodi:docname="steering.svg"
   xmlns:inkscape="http://www.inkscape.org/namespaces/inkscape"
   xmlns:sodipodi="http://sodipodi.sourceforge.net/DTD/sodipodi-0.dtd"
   xmlns="http://www.w3.org/2000/svg"
   xmlns:svg="http://www.w3.org/2000/svg">
  <sodipodi:namedview
     id="namedview2142"
     pagecolor="#ffffff"
     bordercolor="#666666"
     borderopacity="1.0"
     inkscape:pageshadow="2"
     inkscape:pageopacity="0.0"
     inkscape:pagecheckerboard="0"
     inkscape:document-units="mm"
     showgrid="false"
     inkscape:zoom="0.73762626"
     inkscape:cx="126.75796"
     inkscape:cy="204.03287"
     inkscape:window-width="1920"
     inkscape:window-height="1012"
     inkscape:window-x="-8"
     inkscape:window-y="-8"
     inkscape:window-maximized="1"
     inkscape:current-layer="layer1" />
  <defs
     id="defs2137" />
  <g
     inkscape:label="Layer 1"
     inkscape:groupmode="layer"
     id="layer1"
     transform="translate(-71.230528,-94.627479)">
    <g
       id="g912"
       transform="matrix(0.26458333,0,0,0.26458333,-215.01239,-34.355571)">
      <path
         fill-rule="evenodd"
         clip-rule="evenodd"
         fill="#3c2415"
         d="m 1221.692,879.932 c -0.816,1.164 -2.163,1.922 -3.69,1.922 -1.529,0 -2.879,-0.758 -3.693,-1.922 -6.848,-8.326 -15.035,-15.543 -23.902,-22.238 -9.307,3.791 -19.977,8.322 -29.01,12.791 -9.211,4.553 -16.533,8.865 -18.246,11.766 -2.006,3.395 -5.238,5.67 -8.813,6.59 -3.459,0.889 -7.25,0.502 -10.576,-1.357 l -0.605,-0.354 c -3.244,-2.029 -5.422,-5.176 -6.307,-8.631 l -0.09,-0.439 c -0.752,-3.334 -0.316,-6.949 1.465,-10.135 l 0.326,-0.555 c 3.836,-6.313 11.563,-12.305 20.988,-17.799 6.877,-4.008 14.689,-7.795 22.523,-11.268 -22.617,-14.84 -45.303,-30.23 -60.449,-54.564 l -7.334,6.316 c -0.574,0.58 -1.314,1.008 -2.166,1.211 -2.42,0.572 -4.852,-0.928 -5.424,-3.35 -15.08,-63.443 9.992,-82.554 10.055,-82.604 0.438,-0.33 0.928,-0.59 1.479,-0.757 2.371,-0.717 4.881,0.623 5.598,2.993 10.127,33.14 34.688,37.612 34.752,37.621 1.07,0.199 2.086,0.776 2.799,1.709 1.506,1.97 1.123,4.796 -0.848,6.302 l -13.404,10.244 c 7.404,7.496 25.904,24.885 43.947,31.141 17.564,6.094 22.859,-8.551 23.789,-11.715 v -56.038 c -8.182,-5.666 -17.414,-12.537 -25.449,-20.313 -11.814,-11.442 -20.99,-24.845 -20.74,-39.443 0.188,-10.955 5.273,-19.817 12.477,-26.949 3.756,-3.72 8.08,-6.956 12.551,-9.769 -5.834,-0.334 -11.111,-2.863 -15.016,-6.758 -4.205,-4.188 -6.813,-9.985 -6.813,-16.351 0,-6.352 2.607,-12.137 6.795,-16.334 l 0.098,-0.094 c 4.188,-4.138 9.941,-6.717 16.254,-6.717 h 19.844 v -16.428 c -5.82,-3.674 -10.713,-8.692 -14.219,-14.606 -3.85,-6.482 -6.063,-14.056 -6.063,-22.126 0,-11.987 4.859,-22.852 12.717,-30.71 7.857,-7.857 18.723,-12.717 30.711,-12.717 8.41,0 16.282,2.403 22.94,6.555 6.153,3.837 11.289,9.188 14.873,15.531 9.813,1.294 19.168,5.577 26.711,13.543 l 0.784,0.829 c 7.461,8.273 10.554,17.898 10.559,27.703 0,11.095 -4.005,22.366 -10.059,32.094 -1.149,1.844 -2.457,3.769 -3.895,5.739 -0.563,0.779 -1.137,1.542 -1.722,2.304 3.688,4.107 5.941,9.53 5.941,15.436 0,6.352 -2.606,12.141 -6.793,16.333 l -0.1,0.095 c -4.185,4.139 -9.941,6.717 -16.253,6.717 h -19.845 v 92.842 l 2.105,1.348 c 6.14,3.936 11.293,7.236 14.724,9.684 8.051,5.744 16.847,13.056 23.235,21.762 5.188,7.063 8.795,15.02 9.251,23.789 8.001,-6.172 14.651,-12.555 18.42,-16.373 l -13.402,-10.244 c -1.971,-1.506 -2.354,-4.332 -0.848,-6.302 0.711,-0.933 1.727,-1.51 2.799,-1.7 0.063,-0.019 24.625,-4.49 34.749,-37.63 0.717,-2.37 3.228,-3.709 5.6,-2.993 0.55,0.167 1.042,0.428 1.47,0.767 0.072,0.04 25.142,19.151 10.062,82.594 -0.571,2.422 -3.002,3.922 -5.422,3.35 -0.853,-0.203 -1.593,-0.631 -2.165,-1.211 l -7.334,-6.316 c -15.72,25.254 -39.561,40.879 -63.021,56.252 -18.371,12.028 -36.507,23.925 -49.675,39.937 z m 24.966,-295.849 c 13.846,-13.443 18.736,-24.813 18.132,-33.045 -0.226,-3.12 -1.284,-5.752 -2.93,-7.803 -0.518,-0.645 -1.096,-1.24 -1.735,-1.781 -1.195,4.787 -3.187,9.268 -5.82,13.281 -3.412,5.194 -7.907,9.612 -13.159,12.925 v 16.423 z m -5.512,198.767 c 0.653,2.227 3.471,10.135 11.193,12.504 2.394,-1.979 4.463,-3.984 6.06,-5.986 l 0.23,-0.27 c 1.627,-2.092 2.704,-4.143 3.021,-6.068 0.676,-4.121 -2.337,-8.951 -6.326,-13.352 -4.481,-4.951 -10.251,-9.32 -14.028,-12.016 l -0.149,-0.104 v 25.292 z m -46.291,-131.51 c -3.223,1.664 -7.172,3.927 -10.572,6.601 -3.773,2.966 -6.83,6.361 -6.883,9.597 -0.109,6.172 7.158,14.449 17.455,23.137 z m 9.62,-119.782 c 0.736,-2.056 1.959,-3.976 3.652,-5.582 l 1.064,-1 c 3.152,-2.839 6.629,-5.36 10.324,-7.51 -0.496,-0.054 -1,-0.081 -1.514,-0.081 -3.742,0 -7.139,1.514 -9.586,3.953 -2.439,2.449 -3.953,5.843 -3.953,9.585 z"
         id="path874" />
      <path
         fill-rule="evenodd"
         clip-rule="evenodd"
         fill="#5b1d20"
         d="m 1241.146,556.416 c 2.15,-1.952 4.057,-4.175 5.658,-6.613 2.343,-3.571 4.044,-7.615 4.931,-11.947 -3.953,-0.572 -8.421,-0.027 -12.942,1.812 -0.307,0.722 -0.645,1.424 -1.019,2.101 l -0.393,0.686 c 2.375,3.634 3.765,7.966 3.765,12.596 z"
         id="path876" />
      <path
         fill-rule="evenodd"
         clip-rule="evenodd"
         fill="#cd9843"
         d="m 1271.008,586.374 1.65,-2.187 c 1.186,-1.61 2.362,-3.35 3.508,-5.189 5.252,-8.435 8.722,-18.064 8.722,-27.342 0,-7.668 -2.424,-15.202 -8.268,-21.68 l -0.663,-0.721 c -8.086,-8.53 -18.934,-11.749 -29.835,-10.986 -11.158,0.784 -22.387,5.72 -30.907,13.398 l -0.518,0.479 c 1.08,-0.163 2.186,-0.244 3.305,-0.244 3.951,0 7.681,1.009 10.943,2.781 1.345,-0.847 2.701,-1.6 4.067,-2.259 0.198,-0.112 0.41,-0.211 0.621,-0.293 8.485,-3.936 17.177,-4.391 24.237,-2.033 l 0.207,0.063 c 4.305,1.479 8.034,4.008 10.787,7.439 2.769,3.453 4.541,7.772 4.906,12.808 0.667,9.106 -3.373,20.706 -14.701,33.676 h 1.92 c 3.581,-10e-4 6.98,0.824 10.019,2.29 z m -78.311,43.999 -3.879,1.907 c -7.396,3.575 -15.324,8.237 -21.336,14.201 -5.686,5.626 -9.697,12.478 -9.836,20.719 -0.199,11.609 7.771,22.924 18.025,32.851 8.088,7.831 17.633,14.81 25.92,20.49 0.225,0.125 0.436,0.27 0.635,0.432 2.488,1.7 4.855,3.277 7.023,4.725 4.156,2.773 8.943,5.856 13.673,8.908 5.337,3.435 10.68,6.88 15.959,10.446 l 0.091,0.054 0.36,0.243 0.085,0.063 c 2.381,1.614 4.738,3.25 7.088,4.919 4.083,2.917 10.368,7.686 15.471,13.321 5.604,6.186 9.756,13.447 8.544,20.82 -0.545,3.326 -2.128,6.572 -4.477,9.691 5.094,-1.893 10.192,-4.625 15.063,-7.744 l 0.036,-0.176 c 1.51,-9.16 -1.795,-17.564 -7.191,-24.918 -5.712,-7.781 -13.772,-14.461 -21.189,-19.75 -3.172,-2.264 -8.285,-5.541 -14.371,-9.44 l -3.903,-2.506 -0.095,-0.055 -0.365,-0.234 -0.087,-0.063 c -11.212,-7.208 -24.718,-16.058 -36.556,-25.291 -0.572,-0.279 -1.082,-0.676 -1.486,-1.163 -15.438,-12.23 -27.66,-25.021 -27.479,-35.43 0.113,-6.523 4.676,-12.109 10.301,-16.531 5.012,-3.94 10.934,-7.038 14.787,-8.899 l 1.348,-0.658 v -10.933 h -2.159 z m -21.634,213.84 c -9.344,3.969 -18.936,8.426 -27.016,13.139 -8.258,4.814 -14.885,9.842 -17.838,14.736 l -0.063,0.113 c -0.699,1.186 -0.893,2.533 -0.645,3.791 l 0.084,0.289 c 0.33,1.295 1.146,2.475 2.35,3.223 l 0.104,0.059 c 1.271,0.75 2.752,0.92 4.082,0.576 1.324,-0.338 2.531,-1.193 3.285,-2.469 2.732,-4.623 11.406,-10.014 22.014,-15.256 7.592,-3.756 16.293,-7.547 24.416,-10.918 -3.535,-2.467 -7.141,-4.879 -10.773,-7.283 z"
         id="path878" />
      <path
         fill-rule="evenodd"
         clip-rule="evenodd"
         fill="#e9ceb3"
         d="m 1243.449,611.736 c -2.488,0 -4.508,-2.02 -4.508,-4.508 0,-2.489 2.02,-4.509 4.508,-4.509 h 7.988 c 2.488,0 4.509,2.02 4.509,4.509 0,2.488 -2.021,4.508 -4.509,4.508 z"
         id="path880" />
      <path
         fill-rule="evenodd"
         clip-rule="evenodd"
         fill="#e9ceb3"
         d="m 1184.564,611.736 c -2.488,0 -4.51,-2.02 -4.51,-4.508 0,-2.489 2.021,-4.509 4.51,-4.509 h 44.518 c 2.488,0 4.508,2.02 4.508,4.509 0,2.488 -2.02,4.508 -4.508,4.508 z"
         id="path882" />
      <path
         fill-rule="evenodd"
         clip-rule="evenodd"
         fill="#e9ceb3"
         d="m 1222.509,787.145 c 0,2.49 -2.021,4.508 -4.507,4.508 -2.488,0 -4.51,-2.018 -4.51,-4.508 v -7.988 c 0,-2.486 2.021,-4.508 4.51,-4.508 2.486,0 4.507,2.021 4.507,4.508 z"
         id="path884" />
      <path
         fill-rule="evenodd"
         clip-rule="evenodd"
         fill="#6c292a"
         d="m 1199.287,621.356 h 0.076 c 2.488,0 4.508,2.02 4.508,4.508 v 0.117 71.865 c 8.99,6.798 19.074,13.574 28.257,19.552 v -87.026 h -17.856 c -2.488,0 -4.508,-2.02 -4.508,-4.508 0,-2.488 2.02,-4.508 4.508,-4.508 h 22.248 0.118 0.116 24.236 c 3.887,0 7.426,-1.587 9.986,-4.143 2.556,-2.561 4.143,-6.1 4.143,-9.985 0,-3.783 -1.501,-7.236 -3.939,-9.778 l -0.213,-0.199 c -0.478,-0.478 -0.991,-0.924 -1.536,-1.334 v -0.004 l -0.095,-0.067 -0.042,-0.028 c -2.33,-1.704 -5.206,-2.718 -8.304,-2.718 h -24.236 -0.116 c -2.489,0 -4.51,-2.02 -4.51,-4.508 v -0.117 -33.425 c 0,-3.575 -1.339,-6.853 -3.534,-9.337 l -0.181,-0.194 -0.039,-0.049 -0.031,-0.031 -0.015,-0.018 -0.338,-0.348 c -2.564,-2.57 -6.099,-4.156 -9.988,-4.156 -1.967,0 -3.834,0.401 -5.496,1.109 l -0.223,0.104 c -0.359,0.163 -0.715,0.338 -1.059,0.528 1.992,1.149 4.309,1.803 6.777,1.803 2.486,0 4.507,2.02 4.507,4.509 0,2.488 -2.021,4.508 -4.507,4.508 -6.168,0 -11.777,-2.493 -15.852,-6.524 l -0.082,-0.081 c -4.092,-4.098 -6.621,-9.737 -6.621,-15.95 0,-6.167 2.492,-11.775 6.521,-15.851 l 0.082,-0.082 c 4.102,-4.097 9.742,-6.622 15.951,-6.622 2.789,0 5.493,0.519 7.982,1.461 1.691,0.639 3.291,1.487 4.766,2.506 4.585,-1.569 9.327,-2.597 14.073,-2.994 -2.42,-3.002 -5.341,-5.595 -8.633,-7.646 -5.265,-3.282 -11.509,-5.185 -18.188,-5.185 -9.504,0 -18.115,3.854 -24.338,10.076 -6.221,6.221 -10.074,14.833 -10.074,24.335 0,6.42 1.748,12.424 4.793,17.545 3.092,5.221 7.537,9.553 12.824,12.515 l 0.01,0.004 0.045,0.028 c 1.541,0.712 2.609,2.276 2.609,4.084 v 18.983 h 15.869 c 2.488,0 4.509,2.02 4.509,4.509 0,2.488 -2.021,4.508 -4.509,4.508 h -20.26 -0.117 -0.117 -24.234 c -3.887,0 -7.426,1.587 -9.986,4.144 -2.557,2.561 -4.143,6.099 -4.143,9.985 0,3.882 1.594,7.42 4.15,9.977 2.553,2.565 6.092,4.152 9.979,4.152 h 24.277 z m 4.383,163.38 v 0.006 l -0.01,0.016 c -0.654,2.576 -7.857,27.885 -35.52,18.293 -25.467,-8.832 -51.041,-37.082 -51.109,-37.158 -1.65,-1.855 -1.488,-4.705 0.369,-6.355 l 11.078,-8.471 c -8.75,-4.062 -22.227,-13.282 -30.525,-33.306 -4.838,7.943 -11.104,25.827 -4.094,60.789 l 5.951,-5.127 c 1.875,-1.623 4.715,-1.414 6.338,0.459 l 0.586,0.867 c 14.504,26.043 38.869,42.012 62.826,57.705 l 4.359,2.861 0.09,0.059 h 0.01 l 0.086,0.063 c 14.051,9.248 27.783,18.635 39.387,30.256 v -64.178 c 0,-2.488 2.021,-4.51 4.51,-4.51 2.486,0 4.507,2.021 4.507,4.51 v 64.178 c 12.849,-12.871 28.308,-23.006 43.927,-33.238 23.957,-15.693 48.324,-31.662 62.826,-57.705 l 0.586,-0.867 c 1.624,-1.873 4.465,-2.082 6.34,-0.459 l 5.95,5.127 c 7.011,-34.961 0.743,-52.846 -4.094,-60.789 -8.3,20.024 -21.774,29.244 -30.524,33.306 l 11.077,8.471 c 1.856,1.65 2.02,4.5 0.369,6.355 -0.05,0.055 -13.661,15.08 -30.896,26.646 -0.278,0.238 -0.576,0.439 -0.905,0.602 -6.149,4.049 -12.731,7.627 -19.309,9.91 -27.653,9.588 -34.862,-15.721 -35.52,-18.293 l -0.01,-0.016 v -0.006 c -0.13,-0.422 -0.204,-0.865 -0.204,-1.334 V 751.35 c -4.633,-3.097 -9.354,-6.135 -14.065,-9.169 -4.467,-2.88 -8.896,-5.734 -13.816,-9.016 l -0.375,-0.249 v 50.486 c 0,0.469 -0.072,0.912 -0.201,1.334 z"
         id="path886" />
      <path
         fill-rule="evenodd"
         clip-rule="evenodd"
         fill="#5b1d20"
         d="m 1199.287,621.356 h 0.076 c 2.488,0 4.508,2.02 4.508,4.508 v 0.104 l 5.893,-0.104 c 0,-2.488 2.02,-4.508 4.508,-4.508 h 22.248 0.118 0.116 24.236 c 3.887,0 7.426,-1.587 9.986,-4.143 2.556,-2.561 4.143,-6.1 4.143,-9.985 0,-2.236 -0.523,-4.355 -1.456,-6.24 0,0 -3.449,13.777 -20.224,13.777 h -90.361 c 0.563,0.884 1.221,1.705 1.955,2.439 2.553,2.565 6.092,4.152 9.979,4.152 z m 23.911,90.151 c 3.025,2.028 6.022,3.999 8.93,5.892 v -87.026 h -8.93 z m 0,33.987 v 119.512 c 12.708,-12.545 27.896,-22.5 43.237,-32.553 23.957,-15.693 48.324,-31.662 62.826,-57.705 l 0.586,-0.867 c 1.624,-1.873 4.465,-2.082 6.34,-0.459 l 5.95,5.127 c 7.011,-34.961 0.743,-52.846 -4.094,-60.789 0,0 -2.714,30.682 -25.313,37.291 l 5.865,4.486 c 1.856,1.65 2.02,4.5 0.369,6.355 -0.05,0.055 -13.661,15.08 -30.896,26.646 -0.278,0.238 -0.576,0.439 -0.905,0.602 -6.149,4.049 -12.731,7.627 -19.309,9.91 -27.653,9.588 -34.862,-15.721 -35.52,-18.293 l -0.01,-0.016 v -0.006 c -0.13,-0.422 -0.204,-0.865 -0.204,-1.334 V 751.35 c -2.943,-1.97 -5.929,-3.918 -8.927,-5.856 z"
         id="path888" />
      <g
         id="g908">
        <path
           fill-rule="evenodd"
           clip-rule="evenodd"
           fill="#3c2415"
           d="m 1236.638,593.099 c -2.489,0 -4.51,-2.02 -4.51,-4.508 0,-2.489 2.021,-4.509 4.51,-4.509 h 24.353 c 6.365,0 12.163,2.606 16.353,6.795 l 0.27,0.292 c 4.029,4.175 6.523,9.846 6.523,16.059 0,6.352 -2.606,12.141 -6.793,16.333 l -0.1,0.095 c -4.185,4.139 -9.941,6.717 -16.253,6.717 h -46.719 c -2.488,0 -4.508,-2.02 -4.508,-4.508 0,-2.488 2.02,-4.508 4.508,-4.508 h 46.719 c 3.887,0 7.426,-1.587 9.986,-4.143 2.556,-2.561 4.143,-6.1 4.143,-9.985 0,-3.783 -1.501,-7.236 -3.939,-9.778 l -0.213,-0.199 c -2.556,-2.556 -6.096,-4.152 -9.977,-4.152 h -24.353 z m -37.275,28.257 h -24.352 c -3.887,0 -7.426,-1.587 -9.979,-4.152 -2.557,-2.556 -4.15,-6.095 -4.15,-9.977 0,-3.886 1.586,-7.425 4.143,-9.985 2.561,-2.557 6.1,-4.144 9.986,-4.144 h 44.729 c 2.488,0 4.509,-2.02 4.509,-4.508 0,-2.489 -2.021,-4.509 -4.509,-4.509 h -44.729 c -6.313,0 -12.066,2.579 -16.254,6.717 l -0.098,0.094 c -4.188,4.197 -6.795,9.982 -6.795,16.334 0,6.366 2.607,12.163 6.813,16.351 4.197,4.188 9.98,6.793 16.334,6.793 h 24.352 c 2.488,0 4.508,-2.02 4.508,-4.508 0,-2.488 -2.019,-4.506 -4.508,-4.506 z"
           id="path890" />
        <path
           fill-rule="evenodd"
           clip-rule="evenodd"
           fill="#3c2415"
           d="m 1203.871,783.402 c 0,2.49 -2.02,4.508 -4.508,4.508 -2.488,0 -4.508,-2.018 -4.508,-4.508 v -58.943 c 0,-2.489 2.02,-4.509 4.508,-4.509 2.488,0 4.508,2.02 4.508,4.509 z m 0,-83.464 c 0,2.489 -2.02,4.508 -4.508,4.508 -2.488,0 -4.508,-2.02 -4.508,-4.508 v -74.074 c 0,-2.488 2.02,-4.508 4.508,-4.508 2.488,0 4.508,2.02 4.508,4.508 z m 0,-111.347 c 0,2.488 -2.02,4.508 -4.508,4.508 -2.488,0 -4.508,-2.02 -4.508,-4.508 v -23.492 c 0,-2.489 2.02,-4.509 4.508,-4.509 2.488,0 4.508,2.02 4.508,4.509 z m 3.658,-43.026 c 1.307,-1.443 2.93,-2.624 4.754,-3.436 l 0.223,-0.104 c 1.662,-0.708 3.529,-1.109 5.496,-1.109 3.89,0 7.424,1.586 9.988,4.156 2.553,2.547 4.138,6.086 4.138,9.977 v 33.541 c 0,2.488 2.021,4.508 4.51,4.508 2.488,0 4.508,-2.02 4.508,-4.508 v -33.54 c 0,-6.294 -2.564,-12.037 -6.695,-16.225 l -0.122,-0.127 c -4.195,-4.192 -9.976,-6.798 -16.326,-6.798 -3.186,0 -6.26,0.671 -9.063,1.875 l -0.279,0.113 c -2.963,1.312 -5.617,3.259 -7.785,5.652 -1.66,1.835 -1.521,4.68 0.314,6.339 1.835,1.661 4.679,1.521 6.339,-0.314 z m 24.599,80.3 c 0,-2.488 2.021,-4.508 4.51,-4.508 2.488,0 4.508,2.02 4.508,4.508 v 99.802 c 0,2.489 -2.02,4.508 -4.508,4.508 -2.489,0 -4.51,-2.02 -4.51,-4.508 z m 0,123.095 c 0,-2.488 2.021,-4.508 4.51,-4.508 2.488,0 4.508,2.02 4.508,4.508 v 34.442 c 0,2.49 -2.02,4.508 -4.508,4.508 -2.489,0 -4.51,-2.018 -4.51,-4.508 z"
           id="path892" />
        <path
           fill-rule="evenodd"
           clip-rule="evenodd"
           fill="#3c2415"
           d="m 1232.287,784.549 c -0.632,-2.398 0.807,-4.865 3.205,-5.496 2.398,-0.631 4.864,0.807 5.496,3.205 0.013,0.049 4.332,19.111 23.947,12.307 18.042,-6.256 36.543,-23.645 43.945,-31.141 l -13.402,-10.244 c -1.971,-1.506 -2.354,-4.332 -0.848,-6.302 0.711,-0.933 1.727,-1.51 2.799,-1.7 0.063,-0.019 24.625,-4.49 34.749,-37.63 0.717,-2.37 3.228,-3.709 5.6,-2.993 0.55,0.167 1.042,0.428 1.47,0.767 0.072,0.04 25.142,19.151 10.062,82.594 -0.571,2.422 -3.002,3.922 -5.422,3.35 -0.853,-0.203 -1.593,-0.631 -2.165,-1.211 l -7.334,-6.316 c -15.72,25.254 -39.561,40.879 -63.021,56.252 -18.466,12.096 -36.696,24.047 -49.883,40.191 -1.564,1.92 -4.399,2.211 -6.321,0.646 -1.92,-1.563 -2.213,-4.398 -0.648,-6.318 14.119,-17.285 32.901,-29.598 51.92,-42.057 23.957,-15.693 48.324,-31.662 62.826,-57.705 l 0.586,-0.867 c 1.624,-1.873 4.465,-2.082 6.34,-0.459 l 5.95,5.127 c 7.011,-34.961 0.743,-52.846 -4.094,-60.789 -8.3,20.024 -21.774,29.244 -30.524,33.306 l 11.077,8.471 c 1.856,1.65 2.02,4.5 0.369,6.355 -0.068,0.076 -25.644,28.326 -51.109,37.158 -29.084,10.085 -35.553,-18.423 -35.57,-18.501 z"
           id="path894" />
        <path
           fill-rule="evenodd"
           clip-rule="evenodd"
           fill="#3c2415"
           d="m 1235.235,545.461 c -1.605,1.894 -4.45,2.133 -6.344,0.527 -1.894,-1.604 -2.132,-4.45 -0.526,-6.343 0.572,-0.681 1.09,-1.424 1.519,-2.205 0.425,-0.767 0.779,-1.591 1.042,-2.438 0.738,-2.371 3.264,-3.697 5.634,-2.958 2.372,0.74 3.697,3.264 2.958,5.635 -0.441,1.424 -1.036,2.804 -1.744,4.089 -0.726,1.322 -1.587,2.566 -2.539,3.693 z m -2.303,-31.422 c -2.028,-1.799 -4.387,-3.241 -6.947,-4.21 -2.489,-0.943 -5.193,-1.461 -7.982,-1.461 -6.209,0 -11.85,2.525 -15.951,6.622 l -0.082,0.082 c -4.029,4.075 -6.521,9.683 -6.521,15.851 0,6.213 2.529,11.852 6.621,15.95 l 0.082,0.081 c 4.074,4.031 9.684,6.524 15.852,6.524 2.486,0 4.507,-2.02 4.507,-4.508 0,-2.489 -2.021,-4.509 -4.507,-4.509 -3.742,0 -7.139,-1.515 -9.586,-3.953 -2.439,-2.448 -3.953,-5.838 -3.953,-9.584 0,-3.742 1.514,-7.136 3.953,-9.585 2.447,-2.438 5.844,-3.953 9.586,-3.953 1.702,0 3.33,0.306 4.809,0.865 1.557,0.586 2.97,1.452 4.171,2.516 1.856,1.641 4.696,1.47 6.338,-0.388 1.638,-1.858 1.466,-4.699 -0.39,-6.34 z"
           id="path896" />
        <path
           fill-rule="evenodd"
           clip-rule="evenodd"
           fill="#3c2415"
           d="m 1238.788,569.043 c -2.178,1.186 -4.91,0.383 -6.095,-1.794 -1.188,-2.178 -0.384,-4.909 1.794,-6.094 4.977,-2.714 9.214,-6.632 12.316,-11.352 3.015,-4.594 4.968,-9.968 5.485,-15.739 0.222,-2.465 2.412,-4.287 4.879,-4.066 2.466,0.221 4.287,2.412 4.065,4.878 -0.657,7.281 -3.12,14.057 -6.929,19.858 -3.911,5.956 -9.249,10.892 -15.515,14.309 z m 18.213,-57.212 c -3.593,-7.331 -9.188,-13.498 -16.059,-17.781 -6.658,-4.152 -14.53,-6.555 -22.94,-6.555 -11.988,0 -22.854,4.86 -30.711,12.717 -7.857,7.858 -12.717,18.723 -12.717,30.71 0,8.07 2.213,15.644 6.063,22.126 3.973,6.7 9.719,12.249 16.576,15.995 2.178,1.186 4.908,0.383 6.096,-1.794 1.186,-2.178 0.383,-4.909 -1.795,-6.094 -5.424,-2.967 -9.98,-7.367 -13.131,-12.687 -3.045,-5.121 -4.793,-11.125 -4.793,-17.545 0,-9.503 3.854,-18.114 10.074,-24.335 6.223,-6.221 14.834,-10.076 24.338,-10.076 6.68,0 12.924,1.903 18.188,5.185 5.461,3.404 9.9,8.295 12.741,14.083 1.086,2.227 3.781,3.147 6.008,2.06 2.229,-1.087 3.147,-3.782 2.062,-6.009 z"
           id="path898" />
        <path
           fill-rule="evenodd"
           clip-rule="evenodd"
           fill="#3c2415"
           d="m 1195.014,782.258 c 0.631,-2.398 3.098,-3.836 5.496,-3.205 2.396,0.631 3.836,3.098 3.205,5.496 -0.02,0.078 -6.484,28.592 -35.57,18.502 -25.467,-8.832 -51.041,-37.082 -51.109,-37.158 -1.65,-1.855 -1.488,-4.705 0.369,-6.355 l 11.078,-8.471 c -8.75,-4.062 -22.227,-13.282 -30.525,-33.306 -4.838,7.943 -11.104,25.827 -4.094,60.789 l 5.951,-5.127 c 1.875,-1.623 4.715,-1.414 6.338,0.459 l 0.586,0.867 c 14.504,26.043 38.869,42.012 62.826,57.705 19.02,12.459 37.801,24.771 51.921,42.057 1.564,1.92 1.271,4.756 -0.65,6.318 -1.919,1.564 -4.755,1.273 -6.319,-0.646 -13.186,-16.145 -31.416,-28.096 -49.883,-40.191 -23.461,-15.373 -47.301,-30.998 -63.02,-56.252 l -7.334,6.316 c -0.574,0.58 -1.314,1.008 -2.166,1.211 -2.42,0.572 -4.852,-0.928 -5.424,-3.35 -15.08,-63.443 9.992,-82.554 10.055,-82.604 0.438,-0.33 0.928,-0.59 1.479,-0.757 2.371,-0.717 4.881,0.623 5.598,2.993 10.127,33.14 34.688,37.612 34.752,37.621 1.07,0.199 2.086,0.776 2.799,1.709 1.506,1.97 1.123,4.796 -0.848,6.302 l -13.404,10.244 c 7.404,7.496 25.904,24.885 43.947,31.141 19.614,6.803 23.932,-12.259 23.946,-12.308 z"
           id="path900" />
        <path
           fill-rule="evenodd"
           clip-rule="evenodd"
           fill="#3c2415"
           d="m 1222.509,877.346 c 0,2.486 -2.021,4.508 -4.507,4.508 -2.488,0 -4.51,-2.021 -4.51,-4.508 v -75.832 c 0,-2.488 2.021,-4.51 4.51,-4.51 2.486,0 4.507,2.021 4.507,4.51 z m 0,-90.201 c 0,2.49 -2.021,4.508 -4.507,4.508 -2.488,0 -4.51,-2.018 -4.51,-4.508 v -7.988 c 0,-2.486 2.021,-4.508 4.51,-4.508 2.486,0 4.507,2.021 4.507,4.508 z"
           id="path902" />
        <path
           fill-rule="evenodd"
           clip-rule="evenodd"
           fill="#3c2415"
           d="m 1184.564,611.736 c -2.488,0 -4.51,-2.02 -4.51,-4.508 0,-2.489 2.021,-4.509 4.51,-4.509 h 44.518 c 2.488,0 4.508,2.02 4.508,4.509 0,2.488 -2.02,4.508 -4.508,4.508 z m 58.885,0 c -2.488,0 -4.508,-2.02 -4.508,-4.508 0,-2.489 2.02,-4.509 4.508,-4.509 h 7.988 c 2.488,0 4.509,2.02 4.509,4.509 0,2.488 -2.021,4.508 -4.509,4.508 z"
           id="path904" />
        <path
           fill-rule="evenodd"
           clip-rule="evenodd"
           fill="#3c2415"
           d="m 1212.816,537.856 c 0.65,2.389 -0.762,4.864 -3.152,5.513 -2.389,0.649 -4.863,-0.761 -5.512,-3.151 -0.686,-2.511 -0.676,-5.185 0.012,-7.677 0.672,-2.421 2.004,-4.707 3.963,-6.565 l 1.064,-1 c 9.972,-8.984 23.172,-14.764 36.336,-15.688 13.416,-0.938 26.852,3.115 36.999,13.836 l 0.784,0.829 c 7.461,8.273 10.554,17.898 10.559,27.703 0,11.095 -4.005,22.366 -10.059,32.094 -1.149,1.844 -2.457,3.769 -3.895,5.739 -1.415,1.952 -2.895,3.836 -4.419,5.648 -1.596,1.907 -4.436,2.16 -6.342,0.564 -1.908,-1.596 -2.16,-4.436 -0.565,-6.344 1.443,-1.722 2.81,-3.453 4.068,-5.17 1.186,-1.61 2.362,-3.35 3.508,-5.189 5.252,-8.435 8.722,-18.064 8.722,-27.342 0,-7.668 -2.424,-15.202 -8.268,-21.68 l -0.663,-0.721 c -8.086,-8.53 -18.934,-11.749 -29.835,-10.986 -11.158,0.784 -22.387,5.72 -30.907,13.398 l -0.955,0.879 c -0.705,0.667 -1.184,1.501 -1.43,2.394 -0.261,0.95 -0.27,1.969 -0.013,2.916 z m -15.427,102.209 c 2.229,-1.086 4.924,-0.166 6.01,2.061 1.086,2.227 0.168,4.923 -2.061,6.009 l -3.898,1.911 c -3.477,1.687 -8.773,4.449 -13.156,7.895 -3.773,2.966 -6.83,6.361 -6.883,9.597 -0.254,14.669 41.141,41.192 65.851,57.024 6.14,3.936 11.293,7.236 14.724,9.684 8.051,5.744 16.847,13.056 23.235,21.762 6.703,9.129 10.77,19.75 8.804,31.68 l -0.464,2.379 c -0.522,2.43 -2.926,3.977 -5.356,3.453 -2.43,-0.521 -3.976,-2.926 -3.453,-5.355 l 0.402,-1.92 c 1.51,-9.16 -1.795,-17.564 -7.191,-24.918 -5.712,-7.781 -13.772,-14.461 -21.189,-19.75 -3.172,-2.264 -8.285,-5.541 -14.371,-9.44 -26.277,-16.838 -70.309,-45.051 -69.971,-64.742 0.113,-6.523 4.676,-12.109 10.301,-16.531 5.012,-3.94 10.934,-7.038 14.787,-8.899 z m -7.989,208.333 c 2.305,-0.92 4.928,0.199 5.848,2.5 0.92,2.307 -0.197,4.93 -2.502,5.85 -9.818,3.967 -21.549,8.889 -31.35,13.736 -9.211,4.553 -16.533,8.865 -18.246,11.766 -2.006,3.395 -5.238,5.67 -8.813,6.59 -3.459,0.889 -7.25,0.502 -10.576,-1.357 l -0.605,-0.354 c -3.244,-2.029 -5.422,-5.176 -6.307,-8.631 l -0.09,-0.439 c -0.752,-3.334 -0.316,-6.949 1.465,-10.135 l 0.326,-0.555 c 3.836,-6.313 11.563,-12.305 20.988,-17.799 9.146,-5.334 19.963,-10.279 30.268,-14.598 2.297,-0.951 4.934,0.135 5.885,2.43 0.951,2.295 -0.135,4.932 -2.43,5.883 -10.021,4.197 -20.498,8.984 -29.215,14.066 -8.258,4.814 -14.885,9.842 -17.838,14.736 l -0.063,0.113 c -0.699,1.186 -0.893,2.533 -0.645,3.791 l 0.084,0.289 c 0.33,1.295 1.146,2.475 2.35,3.223 l 0.104,0.059 c 1.271,0.75 2.752,0.92 4.082,0.576 1.324,-0.338 2.531,-1.193 3.285,-2.469 2.732,-4.623 11.406,-10.014 22.014,-15.256 10.022,-4.958 21.977,-9.975 31.981,-14.015 z m 66.622,-44.488 c 3.728,-2.867 6.97,-5.873 9.418,-8.943 l 0.207,-0.289 c 2.565,-3.277 4.297,-6.699 4.873,-10.205 1.212,-7.373 -2.939,-14.635 -8.544,-20.82 -5.103,-5.635 -11.388,-10.404 -15.471,-13.321 -7.724,-5.51 -15.662,-10.626 -23.583,-15.725 -4.729,-3.052 -9.517,-6.135 -13.673,-8.908 -9.514,-6.343 -22.834,-15.246 -33.578,-25.647 -10.254,-9.927 -18.225,-21.242 -18.025,-32.851 0.139,-8.241 4.15,-15.093 9.836,-20.719 6.012,-5.964 13.939,-10.626 21.336,-14.201 l 4.838,-2.38 c 2.227,-1.087 3.146,-3.782 2.061,-6.009 -1.085,-2.227 -3.781,-3.147 -6.01,-2.061 l -4.801,2.354 c -8.123,3.927 -16.896,9.116 -23.764,15.923 -7.203,7.132 -12.289,15.995 -12.477,26.949 -0.25,14.598 8.926,28 20.74,39.443 11.33,10.968 25.049,20.133 34.84,26.666 4.92,3.281 9.35,6.135 13.816,9.016 7.867,5.063 15.752,10.142 23.232,15.482 3.777,2.695 9.547,7.064 14.028,12.016 3.989,4.4 7.002,9.23 6.326,13.352 -0.316,1.926 -1.394,3.977 -3.021,6.068 l -0.23,0.27 c -1.984,2.49 -4.702,4.99 -7.867,7.43 -1.961,1.516 -2.327,4.342 -0.811,6.303 1.516,1.958 4.343,2.323 6.304,0.807 z m -4.481,-212.041 c 17.09,-16.108 23.027,-30.566 22.23,-41.462 -0.365,-5.036 -2.138,-9.354 -4.906,-12.808 -2.753,-3.431 -6.482,-5.96 -10.787,-7.439 l -0.207,-0.063 c -9.098,-3.039 -20.9,-1.407 -31.486,6.32 -2.001,1.457 -2.442,4.27 -0.986,6.271 1.455,2.001 4.269,2.444 6.27,0.987 8.065,-5.883 16.785,-7.231 23.344,-5.049 l 0.145,0.054 c 2.719,0.934 5.045,2.484 6.704,4.554 1.646,2.051 2.704,4.683 2.93,7.803 0.622,8.484 -4.584,20.296 -19.416,34.275 -1.809,1.7 -1.894,4.554 -0.194,6.361 1.698,1.809 4.551,1.895 6.359,0.196 z"
           id="path906" />
      </g>
      <path
         fill-rule="evenodd"
         clip-rule="evenodd"
         fill="#ffffff"
         d="m 1097.885,737.041 c -0.1,-1.24 0.82,-2.331 2.061,-2.43 1.238,-0.099 2.33,0.821 2.43,2.061 l 0.465,3.534 c 0.172,1.226 -0.686,2.371 -1.912,2.542 -1.226,0.171 -2.371,-0.686 -2.543,-1.912 z m 2.271,11.848 c -0.314,-1.2 0.402,-2.43 1.602,-2.745 1.199,-0.316 2.43,0.401 2.744,1.6 2.197,8.366 6.568,20.386 15.104,32.288 l 0.09,0.135 c 6.027,8.367 14.119,16.682 24.971,23.609 1.041,0.664 1.352,2.057 0.689,3.098 -0.663,1.041 -2.057,1.354 -3.096,0.689 -11.393,-7.271 -19.883,-15.986 -26.199,-24.758 l -0.115,-0.148 c -8.915,-12.434 -13.491,-25.009 -15.79,-33.768 z"
         id="path910" />
    </g>
  </g>
</svg>
