<?xml version="1.0" encoding="UTF-8" standalone="no"?>
<!-- Created with Inkscape (http://www.inkscape.org/) -->

<svg
   width="126.50999mm"
   height="126.50999mm"
   viewBox="0 0 126.50999 126.50999"
   version="1.1"
   id="svg2422"
   inkscape:version="1.1.1 (3bf5ae0d25, 2021-09-20)"
   sodipodi:docname="steering1.svg"
   xmlns:inkscape="http://www.inkscape.org/namespaces/inkscape"
   xmlns:sodipodi="http://sodipodi.sourceforge.net/DTD/sodipodi-0.dtd"
   xmlns="http://www.w3.org/2000/svg"
   xmlns:svg="http://www.w3.org/2000/svg">
  <sodipodi:namedview
     id="namedview2424"
     pagecolor="#ffffff"
     bordercolor="#666666"
     borderopacity="1.0"
     inkscape:pageshadow="2"
     inkscape:pageopacity="0.0"
     inkscape:pagecheckerboard="0"
     inkscape:document-units="mm"
     showgrid="false"
     inkscape:zoom="0.73762626"
     inkscape:cx="239.28107"
     inkscape:cy="239.28107"
     inkscape:window-width="1920"
     inkscape:window-height="1012"
     inkscape:window-x="-8"
     inkscape:window-y="-8"
     inkscape:window-maximized="1"
     inkscape:current-layer="layer1" />
  <defs
     id="defs2419" />
  <g
     inkscape:label="Layer 1"
     inkscape:groupmode="layer"
     id="layer1"
     transform="translate(-41.663483,-85.424355)">
    <g
       id="g776"
       transform="matrix(0.26458333,0,0,0.26458333,20.437021,-157.82324)">
      <path
         fill-rule="evenodd"
         clip-rule="evenodd"
         fill="#3c2415"
         d="m 302.88,984.699 v -10.166 c 0,-3.697 1.235,-7.113 3.309,-9.865 v -32.201 c 0,-3.598 1.479,-6.871 3.847,-9.242 2.37,-2.389 5.658,-3.863 9.263,-3.863 3.606,0 6.894,1.475 9.264,3.846 l 0.271,0.299 c 2.208,2.344 3.574,5.504 3.574,8.961 v 32.201 c 2.074,2.752 3.31,6.168 3.31,9.865 V 984.7 c 35.858,3.348 68.574,17.551 94.816,39.283 l 7.195,-7.195 c 2.615,-2.615 5.911,-4.16 9.323,-4.639 l 23.118,-23.086 c 2.507,-2.33 5.716,-3.512 8.908,-3.512 3.363,0.023 6.731,1.297 9.265,3.832 2.561,2.561 3.835,5.92 3.835,9.268 -0.013,3.35 -1.289,6.711 -3.823,9.248 l -22.77,22.787 c -0.479,3.41 -2.024,6.705 -4.63,9.311 l -7.204,7.203 c 21.733,26.242 35.934,58.963 39.284,94.818 h 10.166 c 3.696,0 7.114,1.234 9.864,3.309 h 32.203 c 3.597,0 6.87,1.477 9.242,3.844 2.389,2.371 3.864,5.658 3.864,9.266 0,3.605 -1.475,6.893 -3.847,9.264 l -0.297,0.27 c -2.345,2.209 -5.504,3.576 -8.962,3.576 h -32.203 c -2.75,2.074 -6.167,3.309 -9.864,3.309 h -10.166 c -3.346,35.863 -17.551,68.574 -39.284,94.818 l 7.195,7.193 c 2.614,2.613 4.16,5.91 4.639,9.322 l 23.085,23.119 c 2.331,2.506 3.513,5.715 3.513,8.906 -0.022,3.363 -1.299,6.732 -3.832,9.266 -2.561,2.561 -5.919,3.836 -9.269,3.836 -3.35,-0.014 -6.708,-1.289 -9.246,-3.822 l -22.789,-22.771 c -3.408,-0.479 -6.704,-2.023 -9.31,-4.631 l -7.204,-7.203 c -26.242,21.734 -58.963,35.934 -94.816,39.285 v 10.164 c 0,3.699 -1.236,7.115 -3.31,9.865 v 32.201 c 0,3.6 -1.478,6.871 -3.846,9.242 -2.37,2.389 -5.658,3.863 -9.264,3.863 -3.605,0 -6.893,-1.475 -9.263,-3.846 l -0.271,-0.297 c -2.208,-2.344 -3.575,-5.504 -3.575,-8.963 v -32.201 c -2.074,-2.75 -3.309,-6.166 -3.309,-9.865 v -10.164 c -35.863,-3.346 -68.574,-17.551 -94.816,-39.285 l -7.195,7.195 c -2.615,2.615 -5.911,4.16 -9.323,4.639 l -23.118,23.086 c -2.507,2.332 -5.716,3.512 -8.908,3.512 -3.363,-0.021 -6.731,-1.297 -9.265,-3.832 -2.561,-2.561 -3.837,-5.918 -3.837,-9.268 0.015,-3.352 1.291,-6.709 3.824,-9.246 l 22.771,-22.789 c 0.478,-3.408 2.024,-6.705 4.63,-9.311 l 7.204,-7.201 c -21.734,-26.244 -35.934,-58.955 -39.284,-94.818 h -10.166 c -3.697,0 -7.114,-1.234 -9.864,-3.309 H 93.331 c -3.598,0 -6.871,-1.479 -9.242,-3.846 -2.389,-2.371 -3.863,-5.658 -3.863,-9.264 0,-3.607 1.475,-6.895 3.845,-9.266 l 0.298,-0.27 c 2.344,-2.209 5.504,-3.574 8.962,-3.574 h 32.202 c 2.75,-2.074 6.167,-3.309 9.864,-3.309 h 10.166 c 3.35,-35.859 17.549,-68.576 39.284,-94.818 l -7.195,-7.193 c -2.615,-2.615 -4.161,-5.91 -4.639,-9.324 l -23.087,-23.119 c -2.331,-2.506 -3.512,-5.715 -3.512,-8.908 0.022,-3.361 1.299,-6.73 3.833,-9.262 2.561,-2.561 5.919,-3.838 9.269,-3.838 3.35,0.014 6.708,1.289 9.246,3.822 l 22.789,22.771 c 3.408,0.479 6.704,2.023 9.31,4.629 l 7.203,7.205 c 26.238,-21.732 58.953,-35.935 94.816,-39.283 z m 16.418,152.826 c -5.702,0 -10.878,2.295 -14.651,6.02 l -0.131,0.125 c -3.787,3.787 -6.126,9.016 -6.126,14.766 0,5.701 2.293,10.879 6.018,14.65 l 0.126,0.131 c 3.787,3.787 9.006,6.127 14.764,6.127 5.694,0 10.874,-2.295 14.652,-6.018 l 0.131,-0.127 c 3.787,-3.787 6.126,-9.008 6.126,-14.764 0,-5.693 -2.295,-10.875 -6.018,-14.652 l -0.126,-0.131 c -3.787,-3.787 -9.016,-6.127 -14.765,-6.127 z m 106.119,-62.005 -5.973,5.971 c -2.594,2.607 -5.879,4.141 -9.283,4.619 l -32.797,32.803 c -0.482,3.412 -2.024,6.703 -4.626,9.305 l -11.243,11.244 c 0.379,0.838 0.731,1.693 1.061,2.557 h 15.9 c 3.696,0 7.114,1.234 9.863,3.309 h 46.34 c 2.75,-2.074 6.167,-3.309 9.864,-3.309 h 8.448 c -3.025,-24.902 -12.845,-47.703 -27.554,-66.499 z m -89.699,-50.758 v 8.449 c 0,3.697 -1.236,7.113 -3.31,9.863 v 46.34 c 2.074,2.75 3.31,6.168 3.31,9.863 v 15.9 c 0.865,0.33 1.718,0.682 2.557,1.059 l 11.243,-11.24 c 2.596,-2.598 5.882,-4.135 9.292,-4.613 l 32.802,-32.797 c 0.482,-3.408 2.02,-6.699 4.625,-9.305 l 5.968,-5.969 c -18.796,-14.701 -41.593,-24.525 -66.487,-27.55 z m -29.53,64.652 v -46.34 c -2.074,-2.75 -3.309,-6.166 -3.309,-9.863 v -8.449 c -24.898,3.025 -47.706,12.85 -66.496,27.555 l 5.969,5.975 c 2.61,2.592 4.144,5.877 4.622,9.281 l 32.801,32.797 c 3.412,0.482 6.698,2.02 9.304,4.627 l 11.243,11.24 c 0.839,-0.377 1.695,-0.729 2.557,-1.059 v -15.9 c 10e-4,-3.696 1.236,-7.114 3.309,-9.864 z m -120.561,52.604 h 8.448 c 3.696,0 7.113,1.234 9.864,3.309 h 46.34 c 2.75,-2.074 6.167,-3.309 9.864,-3.309 h 15.9 c 0.33,-0.867 0.68,-1.719 1.059,-2.557 l -11.243,-11.244 c -2.601,-2.602 -4.133,-5.885 -4.612,-9.291 l -32.797,-32.803 c -3.408,-0.482 -6.699,-2.02 -9.304,-4.625 l -5.97,-5.969 c -14.702,18.795 -24.524,41.594 -27.549,66.489 z m 27.554,99.332 5.973,-5.969 c 2.592,-2.605 5.875,-4.145 9.283,-4.621 l 32.797,-32.801 c 0.481,-3.414 2.019,-6.699 4.625,-9.307 l 11.243,-11.242 c -0.379,-0.84 -0.729,-1.697 -1.059,-2.557 h -15.9 c -3.696,0 -7.114,-1.234 -9.864,-3.309 h -46.34 c -2.751,2.074 -6.167,3.309 -9.864,3.309 h -8.448 c 3.025,24.901 12.843,47.702 27.554,66.497 z m 89.699,50.755 v -8.447 c 0,-3.697 1.235,-7.115 3.309,-9.863 v -46.34 c -2.074,-2.75 -3.309,-6.166 -3.309,-9.863 v -15.9 c -0.866,-0.328 -1.718,-0.682 -2.557,-1.061 l -11.243,11.244 c -2.602,2.6 -5.883,4.133 -9.292,4.611 l -32.801,32.797 c -0.483,3.414 -2.024,6.705 -4.626,9.305 l -5.969,5.971 c 18.795,14.699 41.594,24.523 66.488,27.546 z m 99.334,-27.552 -5.97,-5.973 c -2.609,-2.592 -4.142,-5.879 -4.62,-9.283 L 358.822,1216.5 c -3.412,-0.482 -6.7,-2.02 -9.304,-4.625 l -11.243,-11.244 c -0.839,0.379 -1.696,0.732 -2.557,1.061 v 15.9 c 0,3.697 -1.236,7.113 -3.31,9.863 v 46.34 c 2.074,2.748 3.31,6.166 3.31,9.863 v 8.447 c 24.898,-3.023 47.701,-12.841 66.496,-27.552 z m 50.757,-89.699 h -8.448 c -3.696,0 -7.114,-1.234 -9.864,-3.309 h -46.34 c -2.75,2.074 -6.167,3.309 -9.863,3.309 h -15.9 c -0.33,0.865 -0.682,1.717 -1.061,2.557 l 11.243,11.242 c 2.602,2.602 4.135,5.883 4.613,9.293 l 32.797,32.801 c 3.408,0.482 6.698,2.02 9.304,4.625 l 5.969,5.969 c 14.701,-18.794 24.525,-41.593 27.55,-66.487 z"
         id="path686" />
      <path
         fill-rule="evenodd"
         clip-rule="evenodd"
         fill="#d6917c"
         d="m 436.313,1041.42 c -29.947,-29.941 -71.323,-48.471 -117.014,-48.471 -45.694,0 -87.07,18.529 -117.015,48.471 -29.942,29.947 -48.472,71.326 -48.472,117.016 0,45.695 18.529,87.07 48.472,117.014 29.944,29.943 71.32,48.473 117.015,48.473 45.691,0 87.067,-18.529 117.014,-48.473 29.944,-29.943 48.473,-71.318 48.473,-117.014 0,-45.69 -18.529,-87.069 -48.473,-117.016 z m -117.015,-23.104 c 38.689,0 73.723,15.688 99.077,41.041 25.354,25.354 41.043,60.389 41.043,99.078 0,38.689 -15.689,73.721 -41.043,99.076 -25.354,25.354 -60.388,41.041 -99.077,41.041 -38.689,0 -73.722,-15.688 -99.076,-41.041 -25.354,-25.355 -41.043,-60.387 -41.043,-99.076 0,-38.689 15.689,-73.725 41.043,-99.078 25.354,-25.353 60.387,-41.041 99.076,-41.041 z"
         id="path688" />
      <path
         fill-rule="evenodd"
         clip-rule="evenodd"
         fill="#e9ceb3"
         d="m 457.51,1098.729 c -0.982,-2.271 0.068,-4.918 2.34,-5.9 2.272,-0.984 4.918,0.066 5.901,2.34 4.257,9.844 7.555,20.201 9.766,30.926 2.163,10.477 3.298,21.305 3.298,32.342 0,3.016 -0.098,6.145 -0.284,9.357 -0.18,3.188 -0.46,6.309 -0.806,9.338 -0.28,2.467 -2.515,4.24 -4.982,3.963 -2.465,-0.281 -4.242,-2.516 -3.961,-4.982 0.342,-2.961 0.603,-5.91 0.771,-8.813 0.162,-2.805 0.247,-5.771 0.247,-8.863 0,-10.506 -1.067,-20.725 -3.091,-30.547 -2.089,-10.142 -5.199,-19.908 -9.199,-29.161 z"
         id="path690" />
      <path
         fill-rule="evenodd"
         clip-rule="evenodd"
         fill="#d6917c"
         d="m 283.607,1147.76 -0.009,0.039 -0.022,0.064 c -0.991,3.354 -1.519,6.902 -1.519,10.572 0,3.668 0.528,7.217 1.519,10.572 l 0.022,0.063 0.009,0.041 c 1.79,5.99 5.054,11.35 9.359,15.656 4.305,4.306 9.665,7.568 15.656,9.359 l 0.042,0.01 0.063,0.023 c 3.354,0.992 6.902,1.518 10.572,1.518 3.67,0 7.218,-0.525 10.572,-1.518 l 0.064,-0.023 0.04,-0.01 c 5.991,-1.791 11.353,-5.053 15.658,-9.359 4.305,-4.306 7.568,-9.666 9.358,-15.656 l 0.01,-0.041 0.022,-0.063 c 0.991,-3.355 1.519,-6.904 1.519,-10.572 0,-3.67 -0.528,-7.219 -1.519,-10.572 l -0.022,-0.064 -0.01,-0.039 c -1.79,-5.992 -5.053,-11.354 -9.358,-15.656 -4.305,-4.307 -9.667,-7.57 -15.658,-9.359 l -0.04,-0.01 -0.064,-0.021 c -3.354,-0.992 -6.901,-1.521 -10.572,-1.521 -3.669,0 -7.218,0.529 -10.572,1.521 l -0.063,0.021 -0.042,0.01 c -5.991,1.789 -11.351,5.053 -15.656,9.359 -4.305,4.302 -7.57,9.664 -9.359,15.656 z m 35.691,-10.235 c 5.749,0 10.978,2.34 14.765,6.127 l 0.126,0.131 c 3.723,3.777 6.018,8.959 6.018,14.652 0,5.756 -2.339,10.977 -6.126,14.764 l -0.131,0.127 c -3.778,3.723 -8.958,6.018 -14.652,6.018 -5.757,0 -10.977,-2.34 -14.764,-6.127 l -0.126,-0.131 c -3.725,-3.771 -6.018,-8.949 -6.018,-14.65 0,-5.75 2.339,-10.979 6.126,-14.766 l 0.131,-0.125 c 3.773,-3.725 8.949,-6.02 14.651,-6.02 z"
         id="path692" />
      <path
         fill-rule="evenodd"
         clip-rule="evenodd"
         fill="#b67f78"
         d="m 315.206,1049.107 v 34.275 c 1.306,-0.338 2.681,-0.52 4.092,-0.52 1.411,0 2.786,0.182 4.093,0.52 v -34.275 c -1.307,0.338 -2.683,0.518 -4.093,0.518 -1.411,0 -2.786,-0.18 -4.092,-0.518 z m -134.282,-34.836 -18.515,-18.516 c -0.793,-0.797 -1.848,-1.203 -2.894,-1.203 -1.046,0.02 -2.096,0.414 -2.886,1.203 -0.812,0.813 -1.216,1.867 -1.216,2.898 0.017,0.988 0.365,1.971 1.041,2.732 l 18.678,18.674 c 0.68,-1.158 1.523,-2.248 2.515,-3.24 l 0.325,-0.318 c 0.916,-0.866 1.906,-1.61 2.952,-2.23 z m 58.174,69.75 24.236,24.242 c 0.684,-1.168 1.527,-2.264 2.528,-3.264 1,-1.002 2.096,-1.844 3.265,-2.529 l -24.241,-24.236 c -0.69,1.164 -1.533,2.264 -2.529,3.26 -0.997,0.994 -2.096,1.838 -3.259,2.527 z M 119.5,1154.342 H 93.33 c -1.056,0 -2.02,0.404 -2.746,1.055 l -0.14,0.148 c -0.74,0.74 -1.204,1.768 -1.204,2.891 0,1.123 0.464,2.15 1.204,2.889 0.73,0.74 1.759,1.203 2.886,1.203 h 26.17 c -0.338,-1.307 -0.518,-2.682 -0.518,-4.092 0,-1.413 0.181,-2.788 0.518,-4.094 z m 90.47,8.185 h 34.276 c -0.338,-1.307 -0.518,-2.682 -0.518,-4.092 0,-1.412 0.18,-2.787 0.518,-4.094 H 209.97 c 0.339,1.307 0.519,2.682 0.519,4.094 0,1.411 -0.18,2.786 -0.519,4.092 z m 105.236,195.705 v 26.17 c 0,1.055 0.404,2.02 1.055,2.746 l 0.147,0.141 c 0.74,0.738 1.769,1.203 2.89,1.203 1.123,0 2.15,-0.465 2.89,-1.203 0.74,-0.73 1.204,-1.76 1.204,-2.887 v -26.17 c -1.307,0.338 -2.683,0.52 -4.093,0.52 -1.412,0 -2.787,-0.182 -4.093,-0.52 z m -140.07,-61.423 -18.515,18.518 c -0.798,0.791 -1.204,1.848 -1.204,2.893 0.017,1.045 0.415,2.098 1.204,2.885 0.811,0.811 1.866,1.217 2.898,1.217 0.988,-0.018 1.97,-0.363 2.732,-1.041 l 18.672,-18.678 c -1.158,-0.68 -2.25,-1.523 -3.242,-2.516 l -0.315,-0.324 c -0.869,-0.915 -1.613,-1.908 -2.23,-2.954 z m 224.364,-63.961 -24.237,-24.24 c -0.686,1.166 -1.529,2.262 -2.529,3.264 -1.001,1 -2.097,1.844 -3.263,2.527 l 24.241,24.236 c 0.69,-1.162 1.533,-2.262 2.528,-3.258 0.996,-0.998 2.096,-1.84 3.26,-2.529 z m -76.108,34.916 v -34.277 c -1.307,0.338 -2.683,0.52 -4.093,0.52 -1.411,0 -2.787,-0.182 -4.092,-0.52 v 34.277 c 1.306,-0.338 2.681,-0.52 4.092,-0.52 1.41,0 2.785,0.182 4.093,0.52 z m -78.506,-29.129 24.241,-24.236 c -1.168,-0.684 -2.264,-1.527 -3.265,-2.527 -1.001,-1.002 -1.844,-2.098 -2.528,-3.264 l -24.236,24.24 c 1.163,0.689 2.262,1.531 3.259,2.529 0.997,0.996 1.839,2.096 2.529,3.258 z m 212.787,63.963 18.515,18.514 c 0.793,0.801 1.848,1.205 2.894,1.205 1.046,-0.02 2.097,-0.414 2.886,-1.205 0.811,-0.811 1.216,-1.865 1.216,-2.898 -0.019,-0.986 -0.365,-1.969 -1.041,-2.732 l -18.678,-18.672 c -0.681,1.16 -1.523,2.25 -2.515,3.24 l -0.325,0.316 c -0.915,0.87 -1.905,1.614 -2.952,2.232 z m 61.425,-140.071 h 26.17 c 1.054,0 2.02,-0.404 2.745,-1.053 l 0.14,-0.15 c 0.738,-0.738 1.204,-1.766 1.204,-2.889 0,-1.123 -0.465,-2.15 -1.204,-2.891 -0.731,-0.738 -1.758,-1.203 -2.885,-1.203 h -26.17 c 0.338,1.307 0.518,2.682 0.518,4.094 0,1.411 -0.18,2.786 -0.518,4.092 z m -90.472,-8.185 h -34.275 c 0.338,1.307 0.518,2.682 0.518,4.094 0,1.41 -0.18,2.785 -0.518,4.092 h 34.275 c -0.338,-1.307 -0.518,-2.682 -0.518,-4.092 0,-1.413 0.181,-2.788 0.518,-4.094 z m 34.836,-134.281 18.515,-18.516 c 0.802,-0.791 1.204,-1.848 1.204,-2.895 -0.019,-1.045 -0.415,-2.096 -1.204,-2.885 -0.812,-0.811 -1.866,-1.217 -2.898,-1.217 -0.988,0.018 -1.97,0.365 -2.732,1.041 l -18.672,18.68 c 1.158,0.678 2.25,1.521 3.241,2.514 l 0.316,0.324 c 0.869,0.916 1.612,1.909 2.23,2.954 z m -69.751,58.173 -24.241,24.236 c 1.167,0.686 2.262,1.527 3.263,2.529 1,1 1.844,2.096 2.529,3.264 l 24.237,-24.242 c -1.164,-0.689 -2.264,-1.533 -3.261,-2.527 -0.994,-0.996 -1.837,-2.096 -2.527,-3.26 z m 51.452,-2.367 c -1.407,-2.037 -0.893,-4.842 1.146,-6.248 2.037,-1.406 4.842,-0.893 6.248,1.145 l 2.909,4.379 c 0.883,1.369 1.792,2.889 2.731,4.566 1.204,2.168 0.424,4.904 -1.745,6.107 -2.169,1.203 -4.905,0.424 -6.107,-1.744 -0.691,-1.234 -1.535,-2.623 -2.472,-4.107 z M 323.392,958.637 v -26.17 c 0,-1.055 -0.406,-2.02 -1.055,-2.746 l -0.149,-0.139 c -0.739,-0.74 -1.767,-1.205 -2.89,-1.205 -1.122,0 -2.15,0.465 -2.89,1.205 -0.738,0.729 -1.202,1.758 -1.202,2.885 v 26.17 c 1.306,-0.338 2.681,-0.52 4.092,-0.52 1.411,0 2.786,0.182 4.094,0.52 z"
         id="path694" />
      <path
         fill-rule="evenodd"
         clip-rule="evenodd"
         fill="#6c292a"
         d="m 314.034,969.344 -0.023,0.027 -0.05,0.055 -0.014,0.008 -0.058,0.068 h -0.004 c -1.235,1.316 -1.988,3.102 -1.988,5.031 v 9.553 c 2.453,-0.105 4.922,-0.152 7.402,-0.152 2.479,0 4.951,0.047 7.402,0.152 v -9.553 c 0,-1.93 -0.756,-3.715 -1.987,-5.031 h -0.006 l -0.058,-0.068 -0.013,-0.008 -0.05,-0.055 -0.022,-0.027 -0.042,-0.037 c -1.334,-1.334 -3.191,-2.172 -5.225,-2.172 -2.033,0 -3.891,0.838 -5.225,2.172 z m 12.666,143.424 v -13.49 c 0,-2.023 -0.837,-3.887 -2.177,-5.223 -1.334,-1.336 -3.191,-2.176 -5.225,-2.176 -2.033,0 -3.891,0.84 -5.225,2.176 -1.338,1.336 -2.177,3.199 -2.177,5.223 v 13.49 c 2.413,-0.389 4.883,-0.592 7.402,-0.592 2.521,0 4.991,0.203 7.402,0.592 z m -34.45,8.144 -9.544,-9.543 c -1.446,-1.447 -3.35,-2.168 -5.233,-2.168 -1.898,0.018 -3.801,0.74 -5.235,2.174 -1.434,1.434 -2.155,3.334 -2.155,5.232 -0.019,1.881 0.704,3.787 2.15,5.234 l 9.544,9.543 c 1.456,-2.014 3.062,-3.902 4.814,-5.658 1.754,-1.751 3.643,-3.357 5.659,-4.814 z m -18.619,30.121 h -13.488 c -2.024,0 -3.887,0.838 -5.225,2.178 -1.334,1.334 -2.173,3.189 -2.173,5.225 0,2.031 0.839,3.891 2.173,5.225 1.338,1.338 3.201,2.178 5.225,2.178 h 13.488 c -0.387,-2.412 -0.59,-4.883 -0.59,-7.402 0,-2.523 0.203,-4.992 0.59,-7.404 z m 83.19,-19.648 9.542,-9.543 c 1.448,-1.447 2.169,-3.354 2.169,-5.234 -0.017,-1.898 -0.739,-3.799 -2.173,-5.232 -1.434,-1.434 -3.336,-2.156 -5.234,-2.156 -1.88,-0.018 -3.787,0.703 -5.235,2.15 l -9.542,9.543 c 2.014,1.457 3.903,3.063 5.658,4.814 1.753,1.755 3.358,3.644 4.815,5.658 z m 8.146,34.453 h 13.489 c 2.024,0 3.885,-0.84 5.225,-2.178 1.334,-1.334 2.173,-3.193 2.173,-5.225 0,-2.035 -0.839,-3.891 -2.173,-5.225 -1.34,-1.34 -3.201,-2.178 -5.225,-2.178 h -13.489 c 0.387,2.412 0.59,4.881 0.59,7.402 0,2.521 -0.203,4.992 -0.59,7.404 z m -18.619,30.119 9.542,9.543 c 1.448,1.447 3.354,2.168 5.235,2.168 1.898,-0.018 3.8,-0.738 5.234,-2.172 1.434,-1.434 2.156,-3.336 2.156,-5.234 0.017,-1.885 -0.704,-3.787 -2.152,-5.234 l -9.542,-9.543 c -1.457,2.016 -3.062,3.904 -4.815,5.656 -1.755,1.755 -3.644,3.361 -5.658,4.816 z m -34.452,8.145 v 13.49 c 0,2.025 0.839,3.885 2.177,5.225 1.334,1.334 3.192,2.172 5.225,2.172 2.034,0 3.891,-0.838 5.225,-2.172 1.34,-1.34 2.177,-3.199 2.177,-5.225 v -13.49 c -2.411,0.389 -4.881,0.592 -7.402,0.592 -2.519,-10e-4 -4.989,-0.204 -7.402,-0.592 z m -30.119,-18.618 -9.544,9.543 c -1.446,1.447 -2.169,3.35 -2.169,5.234 0.019,1.898 0.74,3.801 2.173,5.234 1.433,1.433 3.337,2.154 5.235,2.154 1.883,0.018 3.787,-0.703 5.233,-2.15 l 9.544,-9.543 c -2.016,-1.455 -3.905,-3.061 -5.658,-4.816 -1.752,-1.751 -3.358,-3.64 -4.814,-5.656 z m -52.321,73.262 6.53,-6.531 c 1.345,-1.344 2.062,-3.074 2.156,-4.82 l 0.013,-0.514 c -0.044,-1.863 -0.766,-3.723 -2.173,-5.131 -1.434,-1.434 -3.336,-2.154 -5.233,-2.154 h -0.176 -0.091 c -1.79,0.049 -3.583,0.771 -4.962,2.15 l -6.538,6.523 c 1.651,1.844 3.346,3.639 5.094,5.387 1.745,1.746 3.54,3.44 5.38,5.09 z m -40.102,37.115 h 0.068 0.017 0.091 c 1.798,-0.063 3.593,-0.783 4.954,-2.145 l 6.772,-6.771 c -1.821,-1.672 -3.601,-3.377 -5.347,-5.121 -1.745,-1.746 -3.454,-3.525 -5.121,-5.348 l -6.762,6.762 c -1.37,1.371 -2.086,3.166 -2.15,4.965 l -0.004,0.09 v 0.018 0.068 0.092 c 0,1.811 0.654,3.631 1.947,5.033 l 0.203,0.189 c 1.438,1.451 3.34,2.168 5.243,2.168 z m -4.521,-130.023 h 9.242 c 1.929,0 3.715,-0.758 5.031,-1.988 v -0.01 l 0.068,-0.057 0.009,-0.016 0.054,-0.049 0.027,-0.023 0.037,-0.039 c 1.334,-1.334 2.171,-3.193 2.171,-5.225 0,-2.035 -0.837,-3.891 -2.171,-5.225 l -0.037,-0.041 -0.027,-0.023 -0.054,-0.049 -0.009,-0.014 -0.068,-0.059 v -0.01 c -1.316,-1.234 -3.102,-1.986 -5.031,-1.986 h -9.242 c -0.13,2.447 -0.203,4.918 -0.203,7.402 0,2.484 0.067,4.957 0.203,7.404 z m -54.626,-2.139 0.027,0.023 0.054,0.049 0.009,0.016 0.068,0.057 v 0.01 c 1.316,1.236 3.101,1.988 5.031,1.988 h 9.553 c -0.104,-2.453 -0.153,-4.924 -0.153,-7.402 0,-2.48 0.05,-4.949 0.153,-7.402 h -9.553 c -1.931,0 -3.715,0.758 -5.031,1.986 v 0.01 l -0.068,0.059 -0.009,0.014 -0.054,0.049 -0.027,0.023 -0.036,0.041 c -1.335,1.334 -2.173,3.189 -2.173,5.225 0,2.031 0.838,3.891 2.173,5.225 l 0.036,0.037 z m 88.781,-95.107 6.532,6.531 c 1.343,1.346 3.075,2.061 4.819,2.154 l 0.514,0.014 c 1.862,-0.045 3.725,-0.766 5.13,-2.172 1.434,-1.434 2.156,-3.336 2.156,-5.234 0.017,-1.879 -0.704,-3.781 -2.152,-5.229 l -6.522,-6.537 c -1.844,1.65 -3.638,3.346 -5.388,5.094 -1.745,1.744 -3.44,3.539 -5.089,5.379 z m -37.117,-40.1 v 0.066 0.018 l 0.004,0.092 c 0.064,1.797 0.781,3.592 2.142,4.953 l 6.771,6.771 c 1.667,-1.82 3.376,-3.602 5.121,-5.346 1.746,-1.746 3.526,-3.453 5.347,-5.121 l -6.762,-6.764 c -1.371,-1.371 -3.166,-2.088 -4.964,-2.15 h -0.091 -0.017 -0.068 -0.09 c -1.813,0 -3.633,0.652 -5.036,1.947 l -0.188,0.201 c -1.452,1.439 -2.169,3.342 -2.169,5.244 v 0.093 z m 130.025,-4.523 v 9.242 c 0,1.93 0.758,3.715 1.988,5.031 h 0.004 l 0.058,0.068 0.014,0.01 0.05,0.053 0.023,0.027 0.04,0.035 c 1.334,1.334 3.192,2.174 5.225,2.174 2.034,0 3.891,-0.84 5.225,-2.174 l 0.042,-0.035 0.022,-0.027 0.05,-0.053 0.013,-0.01 0.058,-0.068 h 0.006 c 1.235,-1.316 1.987,-3.102 1.987,-5.031 v -9.242 c -2.447,-0.131 -4.918,-0.203 -7.402,-0.203 -2.485,0 -4.955,0.066 -7.403,0.203 z m 97.246,34.154 -6.532,6.533 c -1.343,1.342 -2.06,3.074 -2.155,4.82 l -0.013,0.514 c 0.044,1.859 0.765,3.723 2.172,5.129 1.434,1.434 3.337,2.154 5.234,2.154 1.879,0.018 3.783,-0.703 5.229,-2.15 l 6.536,-6.523 c -1.649,-1.844 -3.344,-3.637 -5.094,-5.387 -1.744,-1.746 -3.538,-3.44 -5.377,-5.09 z m 44.622,92.91 h -9.242 c -1.929,0 -3.715,0.758 -5.03,1.986 v 0.01 l -0.068,0.059 -0.008,0.014 -0.056,0.049 -0.025,0.023 -0.037,0.041 c -1.334,1.334 -2.173,3.189 -2.173,5.225 0,2.031 0.839,3.891 2.173,5.225 l 0.037,0.039 0.025,0.023 0.056,0.049 0.008,0.016 0.068,0.057 v 0.01 c 1.315,1.236 3.101,1.988 5.03,1.988 h 9.242 c 0.131,-2.447 0.203,-4.918 0.203,-7.402 0,-2.484 -0.068,-4.957 -0.203,-7.404 z m 54.625,2.137 -0.025,-0.023 -0.055,-0.049 -0.009,-0.014 -0.068,-0.059 v -0.01 c -1.316,-1.234 -3.102,-1.986 -5.031,-1.986 h -9.553 c 0.104,2.453 0.153,4.922 0.153,7.402 0,2.479 -0.049,4.949 -0.153,7.402 h 9.553 c 1.929,0 3.715,-0.758 5.031,-1.988 v -0.01 l 0.068,-0.057 0.009,-0.016 0.055,-0.049 0.025,-0.023 0.037,-0.039 c 1.334,-1.334 2.173,-3.193 2.173,-5.225 0,-2.035 -0.839,-3.891 -2.173,-5.225 l -0.037,-0.039 z m -88.779,95.109 -6.532,-6.533 c -1.344,-1.344 -3.075,-2.061 -4.819,-2.156 l -0.514,-0.012 c -1.862,0.043 -3.725,0.766 -5.131,2.172 -1.434,1.434 -2.155,3.336 -2.155,5.234 v 0.176 0.09 c 0.049,1.791 0.771,3.586 2.15,4.965 l 6.523,6.535 c 1.844,-1.65 3.638,-3.344 5.387,-5.094 1.747,-1.744 3.442,-3.539 5.091,-5.377 z M 326.7,1292.9 v -9.242 c 0,-1.93 -0.756,-3.713 -1.987,-5.031 h -0.006 l -0.058,-0.068 -0.013,-0.01 -0.05,-0.055 -0.022,-0.025 -0.042,-0.037 c -1.334,-1.334 -3.191,-2.174 -5.225,-2.174 -2.033,0 -3.891,0.84 -5.225,2.174 l -0.04,0.037 -0.023,0.025 -0.05,0.055 -0.014,0.01 -0.058,0.068 h -0.004 c -1.235,1.318 -1.988,3.102 -1.988,5.031 v 9.242 c 2.448,0.131 4.918,0.203 7.402,0.203 2.485,10e-4 4.956,-0.068 7.403,-0.203 z m -2.136,54.625 0.022,-0.025 0.05,-0.055 0.013,-0.01 0.058,-0.066 h 0.006 c 1.235,-1.318 1.987,-3.102 1.987,-5.033 v -9.553 c -2.451,0.105 -4.922,0.154 -7.402,0.154 -2.48,0 -4.95,-0.049 -7.402,-0.154 v 9.553 c 0,1.932 0.758,3.715 1.988,5.033 h 0.004 l 0.058,0.066 0.014,0.01 0.05,0.055 0.023,0.025 0.04,0.037 c 1.334,1.334 3.192,2.172 5.225,2.172 2.034,0 3.891,-0.838 5.225,-2.172 z m 132.163,-59.146 v -0.068 -0.018 -0.09 c -0.064,-1.799 -0.785,-3.594 -2.146,-4.953 l -6.772,-6.773 c -1.672,1.822 -3.375,3.602 -5.122,5.348 -1.745,1.744 -3.529,3.451 -5.345,5.121 l 6.762,6.762 c 1.37,1.371 3.164,2.092 4.964,2.154 h 0.089 0.019 0.067 0.091 c 1.813,0 3.634,-0.652 5.036,-1.947 l 0.188,-0.201 c 1.452,-1.439 2.169,-3.342 2.169,-5.242 z m -7.485,-267.371 h -0.067 -0.019 -0.089 c -1.8,0.063 -3.594,0.779 -4.955,2.141 l -6.771,6.773 c 1.821,1.668 3.601,3.375 5.345,5.121 1.746,1.744 3.454,3.527 5.122,5.346 l 6.763,-6.764 c 1.37,-1.369 2.091,-3.164 2.155,-4.961 v -0.092 -0.018 -0.066 -0.092 c 0,-1.811 -0.654,-3.633 -1.947,-5.035 l -0.203,-0.189 c -1.438,-1.453 -3.341,-2.168 -5.243,-2.168 h -0.091 z"
         id="path696" />
      <g
         id="g772">
        <path
           fill-rule="evenodd"
           clip-rule="evenodd"
           fill="#3c2415"
           d="m 319.298,1137.525 c 5.749,0 10.978,2.34 14.765,6.127 l 0.126,0.131 c 3.723,3.777 6.018,8.959 6.018,14.652 0,5.756 -2.339,10.977 -6.126,14.764 l -0.131,0.127 c -3.778,3.723 -8.958,6.018 -14.652,6.018 -5.757,0 -10.977,-2.34 -14.764,-6.127 l -0.126,-0.131 c -3.725,-3.771 -6.018,-8.949 -6.018,-14.65 0,-5.75 2.339,-10.979 6.126,-14.766 l 0.131,-0.125 c 3.773,-3.725 8.949,-6.02 14.651,-6.02 z m 8.417,12.493 c -2.146,-2.146 -5.121,-3.477 -8.417,-3.477 -3.263,0 -6.211,1.305 -8.345,3.404 l -0.062,0.064 c -2.155,2.154 -3.485,5.129 -3.485,8.426 0,3.264 1.303,6.213 3.404,8.344 l 0.063,0.063 c 2.155,2.154 5.131,3.486 8.426,3.486 3.265,0 6.212,-1.303 8.345,-3.404 l 0.064,-0.063 c 2.154,-2.156 3.484,-5.131 3.484,-8.426 0,-3.264 -1.303,-6.213 -3.404,-8.346 z"
           id="path698" />
        <path
           fill-rule="evenodd"
           clip-rule="evenodd"
           fill="#3c2415"
           d="m 319.298,1112.176 c 12.772,0 24.34,5.186 32.708,13.551 8.368,8.369 13.551,19.938 13.551,32.709 0,12.77 -5.184,24.338 -13.551,32.705 -8.367,8.369 -19.936,13.553 -32.708,13.553 -12.771,0 -24.339,-5.184 -32.707,-13.553 -8.367,-8.367 -13.551,-19.936 -13.551,-32.705 0,-12.771 5.184,-24.34 13.551,-32.709 8.368,-8.366 19.937,-13.551 32.707,-13.551 z m 26.333,19.928 c -6.735,-6.736 -16.054,-10.912 -26.333,-10.912 -10.278,0 -19.597,4.176 -26.332,10.912 -6.735,6.734 -10.91,16.053 -10.91,26.332 0,10.277 4.175,19.596 10.91,26.332 6.735,6.736 16.054,10.908 26.332,10.908 10.279,0 19.598,-4.172 26.333,-10.908 6.735,-6.736 10.91,-16.055 10.91,-26.332 0,-10.28 -4.175,-19.598 -10.91,-26.332 z"
           id="path700" />
        <path
           fill-rule="evenodd"
           clip-rule="evenodd"
           fill="#3c2415"
           d="m 319.298,1014.75 c 39.673,0 75.598,16.09 101.596,42.088 26,26 42.089,61.924 42.089,101.598 0,39.672 -16.089,75.596 -42.089,101.594 -25.998,26 -61.923,42.09 -101.596,42.09 -39.671,0 -75.597,-16.09 -101.597,-42.09 -25.998,-25.998 -42.087,-61.922 -42.087,-101.594 0,-39.674 16.089,-75.598 42.087,-101.598 26,-25.998 61.926,-42.088 101.597,-42.088 z m 95.222,48.463 c -24.366,-24.367 -58.037,-39.447 -95.222,-39.447 -37.183,0 -70.855,15.08 -95.222,39.447 -24.366,24.365 -39.446,58.037 -39.446,95.223 0,37.184 15.08,70.854 39.446,95.221 24.367,24.367 58.039,39.447 95.222,39.447 37.185,0 70.856,-15.08 95.222,-39.447 24.367,-24.367 39.447,-58.037 39.447,-95.221 0,-37.186 -15.08,-70.858 -39.447,-95.223 z"
           id="path702" />
        <path
           fill-rule="evenodd"
           clip-rule="evenodd"
           fill="#3c2415"
           d="m 319.298,983.934 c 48.171,0 91.81,19.537 123.389,51.113 31.577,31.578 51.115,75.217 51.115,123.389 0,48.184 -19.538,91.813 -51.115,123.389 -31.579,31.574 -75.218,51.113 -123.389,51.113 -48.184,0 -91.814,-19.539 -123.389,-51.113 -31.575,-31.576 -51.113,-75.205 -51.113,-123.389 0,-48.172 19.538,-91.811 51.113,-123.389 31.575,-31.576 75.205,-51.113 123.389,-51.113 z m 117.015,57.486 c -29.947,-29.941 -71.323,-48.471 -117.014,-48.471 -45.694,0 -87.07,18.529 -117.015,48.471 -29.942,29.947 -48.472,71.326 -48.472,117.016 0,45.695 18.529,87.07 48.472,117.014 29.944,29.943 71.32,48.473 117.015,48.473 45.691,0 87.067,-18.529 117.014,-48.473 29.944,-29.943 48.473,-71.318 48.473,-117.014 0,-45.69 -18.529,-87.069 -48.473,-117.016 z"
           id="path704" />
        <path
           fill-rule="evenodd"
           clip-rule="evenodd"
           fill="#3c2415"
           d="m 326.7,1019.764 c 0,-2.488 2.02,-4.51 4.51,-4.51 2.488,0 4.508,2.021 4.508,4.51 v 13.447 c 0,4.521 -1.849,8.629 -4.819,11.6 -2.966,2.967 -7.083,4.814 -11.601,4.814 -4.517,0 -8.633,-1.848 -11.6,-4.814 -2.971,-2.971 -4.819,-7.078 -4.819,-11.6 v -13.451 c 0,-2.49 2.02,-4.508 4.508,-4.508 2.49,0 4.508,2.018 4.508,4.508 v 13.451 c 0,2.023 0.839,3.885 2.177,5.225 1.334,1.334 3.192,2.174 5.225,2.174 2.034,0 3.891,-0.84 5.225,-2.174 1.34,-1.34 2.177,-3.201 2.177,-5.225 v -13.447 z M 311.896,988.85 c 0,2.49 -2.019,4.508 -4.508,4.508 -2.488,0 -4.508,-2.018 -4.508,-4.508 v -14.316 c 0,-4.521 1.848,-8.629 4.819,-11.6 2.966,-2.967 7.083,-4.816 11.6,-4.816 4.518,0 8.634,1.85 11.601,4.816 2.97,2.971 4.819,7.078 4.819,11.6 v 14.316 c 0,2.49 -2.02,4.508 -4.508,4.508 -2.49,0 -4.51,-2.018 -4.51,-4.508 v -14.316 c 0,-2.025 -0.837,-3.887 -2.177,-5.227 -1.334,-1.334 -3.191,-2.172 -5.225,-2.172 -2.033,0 -3.891,0.838 -5.225,2.172 -1.338,1.34 -2.177,3.201 -2.177,5.227 v 14.316 z"
           id="path706" />
        <path
           fill-rule="evenodd"
           clip-rule="evenodd"
           fill="#3c2415"
           d="m 311.896,1118.406 c 0,2.49 -2.019,4.508 -4.508,4.508 -2.488,0 -4.508,-2.018 -4.508,-4.508 v -19.129 c 0,-4.52 1.848,-8.627 4.819,-11.6 2.966,-2.967 7.083,-4.814 11.6,-4.814 4.518,0 8.634,1.848 11.601,4.814 2.97,2.973 4.819,7.08 4.819,11.6 v 19.129 c 0,2.49 -2.02,4.508 -4.508,4.508 -2.49,0 -4.51,-2.018 -4.51,-4.508 v -19.129 c 0,-2.023 -0.837,-3.887 -2.177,-5.223 -1.334,-1.336 -3.191,-2.176 -5.225,-2.176 -2.033,0 -3.891,0.84 -5.225,2.176 -1.338,1.336 -2.177,3.199 -2.177,5.223 v 19.129 z"
           id="path708" />
        <path
           fill-rule="evenodd"
           clip-rule="evenodd"
           fill="#3c2415"
           d="m 315.206,966.314 c 0,2.488 -2.02,4.508 -4.51,4.508 -2.488,0 -4.508,-2.02 -4.508,-4.508 v -33.848 c 0,-3.598 1.479,-6.871 3.847,-9.242 2.37,-2.389 5.658,-3.863 9.263,-3.863 3.606,0 6.894,1.475 9.264,3.846 l 0.271,0.299 c 2.208,2.344 3.574,5.504 3.574,8.961 v 33.848 c 0,2.488 -2.02,4.508 -4.508,4.508 -2.488,0 -4.508,-2.02 -4.508,-4.508 v -33.848 c 0,-1.055 -0.406,-2.02 -1.055,-2.746 l -0.149,-0.139 c -0.739,-0.74 -1.767,-1.205 -2.89,-1.205 -1.122,0 -2.15,0.465 -2.89,1.205 -0.738,0.729 -1.202,1.758 -1.202,2.885 v 33.847 z"
           id="path710" />
        <path
           fill-rule="evenodd"
           clip-rule="evenodd"
           fill="#3c2415"
           d="m 315.206,1090.871 c 0,2.488 -2.02,4.508 -4.51,4.508 -2.488,0 -4.508,-2.02 -4.508,-4.508 v -49.441 c 0,-2.488 2.02,-4.508 4.508,-4.508 2.49,0 4.51,2.02 4.51,4.508 z m 8.186,-49.441 c 0,-2.488 2.02,-4.508 4.508,-4.508 2.488,0 4.508,2.02 4.508,4.508 v 49.441 c 0,2.488 -2.02,4.508 -4.508,4.508 -2.488,0 -4.508,-2.02 -4.508,-4.508 z"
           id="path712" />
        <path
           fill-rule="evenodd"
           clip-rule="evenodd"
           fill="#3c2415"
           d="m 422.608,1065.617 c 1.759,-1.752 4.607,-1.742 6.356,0.016 1.75,1.76 1.741,4.609 -0.017,6.357 l -9.503,9.5 c -3.178,3.195 -7.39,4.785 -11.596,4.783 -4.201,0.018 -8.413,-1.584 -11.609,-4.779 -3.196,-3.197 -4.796,-7.408 -4.796,-11.609 0.014,-4.205 1.605,-8.418 4.792,-11.604 l 9.513,-9.512 c 1.757,-1.76 4.616,-1.76 6.375,0 1.757,1.758 1.757,4.615 0,6.373 l -9.513,9.514 c -1.447,1.447 -2.167,3.35 -2.167,5.229 0.017,1.898 0.738,3.801 2.172,5.234 1.434,1.434 3.337,2.154 5.234,2.154 1.879,0.018 3.783,-0.703 5.229,-2.15 z m 11.37,-32.33 10.135,-10.135 c 1.429,-1.43 3.331,-2.145 5.221,-2.145 1.902,0 3.805,0.715 5.243,2.168 l 0.203,0.189 c 1.293,1.402 1.947,3.225 1.947,5.035 0,1.889 -0.717,3.793 -2.155,5.229 l -10.126,10.127 c -1.759,1.758 -1.759,4.615 0,6.375 1.759,1.758 4.616,1.758 6.375,0 l 10.135,-10.135 c 3.188,-3.188 4.788,-7.398 4.788,-11.596 0,-4.057 -1.514,-8.133 -4.512,-11.293 l -0.316,-0.324 c -3.195,-3.188 -7.402,-4.793 -11.581,-4.793 -4.197,0 -8.407,1.6 -11.604,4.797 l -10.126,10.125 c -1.757,1.758 -1.757,4.617 0,6.375 1.756,1.761 4.615,1.761 6.373,10e-4 z"
           id="path714" />
        <path
           fill-rule="evenodd"
           clip-rule="evenodd"
           fill="#3c2415"
           d="m 342.367,1124.895 c -1.757,1.758 -4.616,1.758 -6.375,0 -1.757,-1.76 -1.757,-4.617 0,-6.375 l 13.525,-13.523 c 3.183,-3.184 7.402,-4.779 11.608,-4.775 4.202,-0.018 8.412,1.582 11.608,4.779 3.196,3.195 4.797,7.406 4.797,11.607 -0.014,4.205 -1.609,8.428 -4.793,11.609 l -13.524,13.525 c -1.757,1.756 -4.616,1.756 -6.375,0 -1.757,-1.76 -1.757,-4.617 0,-6.375 l 13.524,-13.525 c 1.448,-1.447 2.169,-3.354 2.169,-5.234 -0.017,-1.898 -0.739,-3.799 -2.173,-5.232 -1.434,-1.434 -3.336,-2.156 -5.234,-2.156 -1.88,-0.018 -3.787,0.703 -5.235,2.15 z"
           id="path716" />
        <path
           fill-rule="evenodd"
           clip-rule="evenodd"
           fill="#3c2415"
           d="m 452.254,1019.691 c -1.757,1.756 -4.616,1.756 -6.375,0 -1.757,-1.76 -1.757,-4.617 0,-6.375 l 24.291,-24.254 c 2.507,-2.33 5.716,-3.512 8.908,-3.512 3.363,0.023 6.731,1.297 9.265,3.832 2.561,2.561 3.835,5.92 3.835,9.268 -0.013,3.35 -1.289,6.711 -3.823,9.248 l -23.938,23.955 c -1.757,1.76 -4.616,1.76 -6.375,0 -1.757,-1.758 -1.757,-4.617 0,-6.375 l 23.934,-23.934 c 0.802,-0.791 1.204,-1.848 1.204,-2.895 -0.019,-1.045 -0.415,-2.096 -1.204,-2.885 -0.812,-0.811 -1.866,-1.217 -2.898,-1.217 -0.988,0.018 -1.97,0.365 -2.732,1.041 z"
           id="path718" />
        <path
           fill-rule="evenodd"
           clip-rule="evenodd"
           fill="#3c2415"
           d="m 364.177,1107.764 c -1.758,1.756 -4.616,1.756 -6.375,0 -1.759,-1.76 -1.759,-4.617 0,-6.377 l 34.962,-34.955 c 1.757,-1.758 4.616,-1.758 6.375,0 1.757,1.758 1.757,4.617 0,6.375 z m 40.751,-29.17 -34.958,34.963 c -1.757,1.758 -1.757,4.615 0,6.373 1.758,1.758 4.617,1.758 6.375,0 l 34.958,-34.959 c 1.757,-1.76 1.757,-4.617 0,-6.377 -1.76,-1.758 -4.618,-1.758 -6.375,0 z"
           id="path720" />
        <path
           fill-rule="evenodd"
           clip-rule="evenodd"
           fill="#3c2415"
           d="m 457.97,1165.838 c 2.488,0 4.508,2.018 4.508,4.508 0,2.488 -2.02,4.508 -4.508,4.508 h -13.448 c -4.521,0 -8.629,-1.848 -11.6,-4.82 -2.967,-2.965 -4.814,-7.08 -4.814,-11.598 0,-4.518 1.848,-8.635 4.814,-11.602 2.971,-2.969 7.079,-4.816 11.6,-4.816 h 13.452 c 2.49,0 4.51,2.018 4.51,4.508 0,2.486 -2.02,4.508 -4.51,4.508 h -13.452 c -2.024,0 -3.886,0.838 -5.225,2.178 -1.334,1.334 -2.173,3.189 -2.173,5.225 0,2.031 0.839,3.891 2.173,5.225 1.339,1.338 3.201,2.178 5.225,2.178 h 13.448 z m 30.914,-14.805 c -2.488,0 -4.508,-2.021 -4.508,-4.508 0,-2.49 2.02,-4.508 4.508,-4.508 h 14.317 c 4.522,0 8.629,1.848 11.6,4.816 2.967,2.967 4.815,7.084 4.815,11.602 0,4.518 -1.848,8.633 -4.815,11.598 -2.971,2.973 -7.077,4.82 -11.6,4.82 h -14.317 c -2.488,0 -4.508,-2.02 -4.508,-4.508 0,-2.49 2.02,-4.508 4.508,-4.508 h 14.317 c 2.024,0 3.887,-0.84 5.225,-2.178 1.334,-1.334 2.173,-3.193 2.173,-5.225 0,-2.035 -0.839,-3.891 -2.173,-5.225 -1.338,-1.34 -3.201,-2.178 -5.225,-2.178 h -14.317 z"
           id="path722" />
        <path
           fill-rule="evenodd"
           clip-rule="evenodd"
           fill="#3c2415"
           d="m 359.327,1151.033 c -2.489,0 -4.508,-2.021 -4.508,-4.508 0,-2.49 2.019,-4.508 4.508,-4.508 h 19.128 c 4.521,0 8.628,1.848 11.599,4.816 2.967,2.967 4.815,7.084 4.815,11.602 0,4.518 -1.848,8.633 -4.815,11.598 -2.971,2.973 -7.079,4.82 -11.599,4.82 h -19.128 c -2.489,0 -4.508,-2.02 -4.508,-4.508 0,-2.49 2.019,-4.508 4.508,-4.508 h 19.128 c 2.024,0 3.885,-0.84 5.225,-2.178 1.334,-1.334 2.173,-3.193 2.173,-5.225 0,-2.035 -0.839,-3.891 -2.173,-5.225 -1.34,-1.34 -3.201,-2.178 -5.225,-2.178 h -19.128 z"
           id="path724" />
        <path
           fill-rule="evenodd"
           clip-rule="evenodd"
           fill="#3c2415"
           d="m 511.42,1154.342 c -2.488,0 -4.508,-2.02 -4.508,-4.508 0,-2.488 2.02,-4.508 4.508,-4.508 h 33.848 c 3.597,0 6.87,1.477 9.242,3.844 2.389,2.371 3.864,5.658 3.864,9.266 0,3.605 -1.475,6.893 -3.847,9.264 l -0.297,0.27 c -2.345,2.209 -5.504,3.576 -8.962,3.576 H 511.42 c -2.488,0 -4.508,-2.02 -4.508,-4.51 0,-2.486 2.02,-4.508 4.508,-4.508 h 33.848 c 1.054,0 2.02,-0.404 2.745,-1.053 l 0.14,-0.15 c 0.738,-0.738 1.204,-1.766 1.204,-2.889 0,-1.123 -0.465,-2.15 -1.204,-2.891 -0.731,-0.738 -1.758,-1.203 -2.885,-1.203 z"
           id="path726" />
        <path
           fill-rule="evenodd"
           clip-rule="evenodd"
           fill="#3c2415"
           d="m 386.863,1154.342 c -2.488,0 -4.508,-2.02 -4.508,-4.508 0,-2.488 2.02,-4.508 4.508,-4.508 h 49.441 c 2.488,0 4.508,2.02 4.508,4.508 0,2.488 -2.02,4.508 -4.508,4.508 z m 49.441,8.185 c 2.488,0 4.508,2.021 4.508,4.508 0,2.49 -2.02,4.51 -4.508,4.51 h -49.441 c -2.488,0 -4.508,-2.02 -4.508,-4.51 0,-2.486 2.02,-4.508 4.508,-4.508 z"
           id="path728" />
        <path
           fill-rule="evenodd"
           clip-rule="evenodd"
           fill="#3c2415"
           d="m 412.117,1261.744 c 1.75,1.758 1.74,4.607 -0.017,6.357 -1.759,1.748 -4.607,1.74 -6.356,-0.02 l -9.5,-9.502 c -3.195,-3.178 -4.786,-7.391 -4.782,-11.596 -0.018,-4.201 1.582,-8.412 4.778,-11.607 3.197,-3.197 7.408,-4.797 11.609,-4.797 4.206,0.014 8.417,1.604 11.604,4.791 l 9.512,9.512 c 1.758,1.76 1.758,4.617 0,6.375 -1.757,1.758 -4.616,1.758 -6.375,0 l -9.511,-9.512 c -1.446,-1.447 -3.35,-2.168 -5.229,-2.168 -1.897,0.018 -3.801,0.738 -5.234,2.172 -1.434,1.434 -2.155,3.336 -2.155,5.234 -0.017,1.881 0.704,3.783 2.15,5.23 z m 32.329,11.371 10.135,10.135 c 1.429,1.428 2.146,3.328 2.146,5.221 0,1.9 -0.717,3.803 -2.169,5.242 l -0.188,0.201 c -1.402,1.295 -3.224,1.947 -5.036,1.947 -1.89,0 -3.792,-0.717 -5.229,-2.154 l -10.126,-10.125 c -1.757,-1.758 -4.616,-1.758 -6.375,0 -1.757,1.76 -1.757,4.617 0,6.375 l 10.135,10.133 c 3.188,3.188 7.398,4.789 11.595,4.789 4.057,0 8.133,-1.516 11.293,-4.514 l 0.325,-0.316 c 3.187,-3.195 4.792,-7.4 4.792,-11.578 0,-4.199 -1.6,-8.41 -4.796,-11.605 l -10.126,-10.127 c -1.759,-1.758 -4.616,-1.758 -6.375,0 -1.76,1.759 -1.76,4.616 -10e-4,6.376 z"
           id="path730" />
        <path
           fill-rule="evenodd"
           clip-rule="evenodd"
           fill="#3c2415"
           d="m 352.839,1181.502 c -1.757,-1.758 -1.757,-4.615 0,-6.373 1.759,-1.758 4.618,-1.758 6.375,0 l 13.524,13.523 c 3.188,3.189 4.779,7.402 4.775,11.609 0.019,4.201 -1.583,8.412 -4.779,11.609 -3.197,3.195 -7.407,4.795 -11.608,4.795 -4.206,-0.014 -8.421,-1.604 -11.608,-4.791 l -13.525,-13.523 c -1.757,-1.76 -1.757,-4.617 0,-6.377 1.758,-1.758 4.617,-1.758 6.375,0 l 13.524,13.525 c 1.448,1.447 3.354,2.168 5.235,2.168 1.898,-0.018 3.8,-0.738 5.234,-2.172 1.434,-1.434 2.156,-3.336 2.156,-5.234 0.017,-1.885 -0.704,-3.787 -2.152,-5.234 z"
           id="path732" />
        <path
           fill-rule="evenodd"
           clip-rule="evenodd"
           fill="#3c2415"
           d="m 458.042,1291.391 c -1.757,-1.758 -1.757,-4.617 0,-6.375 1.759,-1.758 4.617,-1.758 6.375,0 l 24.254,24.291 c 2.331,2.506 3.513,5.715 3.513,8.906 -0.022,3.363 -1.299,6.732 -3.832,9.266 -2.561,2.561 -5.919,3.836 -9.269,3.836 -3.35,-0.014 -6.708,-1.289 -9.246,-3.822 l -23.957,-23.939 c -1.757,-1.758 -1.757,-4.615 0,-6.373 1.759,-1.76 4.617,-1.76 6.375,0 l 23.935,23.932 c 0.793,0.801 1.848,1.205 2.894,1.205 1.046,-0.02 2.097,-0.414 2.886,-1.205 0.811,-0.811 1.216,-1.865 1.216,-2.898 -0.019,-0.986 -0.365,-1.969 -1.041,-2.732 z"
           id="path734" />
        <path
           fill-rule="evenodd"
           clip-rule="evenodd"
           fill="#3c2415"
           d="m 369.97,1203.313 c -1.757,-1.756 -1.757,-4.615 0,-6.373 1.758,-1.758 4.617,-1.758 6.375,0 l 34.958,34.961 c 1.757,1.758 1.757,4.615 0,6.375 -1.759,1.758 -4.617,1.758 -6.375,0 z m 29.169,40.75 -34.962,-34.955 c -1.758,-1.76 -4.616,-1.76 -6.375,0 -1.759,1.758 -1.759,4.615 0,6.373 l 34.962,34.957 c 1.757,1.76 4.616,1.76 6.375,0 1.757,-1.758 1.757,-4.616 0,-6.375 z"
           id="path736" />
        <path
           fill-rule="evenodd"
           clip-rule="evenodd"
           fill="#3c2415"
           d="m 311.896,1297.107 c 0,2.488 -2.019,4.508 -4.508,4.508 -2.488,0 -4.508,-2.02 -4.508,-4.508 v -13.449 c 0,-4.521 1.848,-8.627 4.819,-11.6 2.966,-2.967 7.083,-4.814 11.6,-4.814 4.518,0 8.634,1.848 11.601,4.814 2.97,2.973 4.819,7.078 4.819,11.6 v 13.453 c 0,2.488 -2.02,4.508 -4.508,4.508 -2.49,0 -4.51,-2.02 -4.51,-4.508 v -13.453 c 0,-2.023 -0.837,-3.887 -2.177,-5.225 -1.334,-1.334 -3.191,-2.174 -5.225,-2.174 -2.033,0 -3.891,0.84 -5.225,2.174 -1.338,1.338 -2.177,3.201 -2.177,5.225 v 13.449 z m 14.804,30.913 c 0,-2.488 2.02,-4.508 4.51,-4.508 2.488,0 4.508,2.02 4.508,4.508 v 14.316 c 0,4.523 -1.849,8.629 -4.819,11.6 -2.966,2.967 -7.083,4.816 -11.601,4.816 -4.517,0 -8.633,-1.85 -11.6,-4.816 -2.971,-2.971 -4.819,-7.076 -4.819,-11.6 v -14.316 c 0,-2.488 2.02,-4.508 4.508,-4.508 2.49,0 4.508,2.02 4.508,4.508 v 14.316 c 0,2.025 0.839,3.887 2.177,5.227 1.334,1.334 3.192,2.172 5.225,2.172 2.034,0 3.891,-0.838 5.225,-2.172 1.34,-1.34 2.177,-3.201 2.177,-5.227 v -14.316 z"
           id="path738" />
        <path
           fill-rule="evenodd"
           clip-rule="evenodd"
           fill="#3c2415"
           d="m 326.7,1198.463 c 0,-2.488 2.02,-4.508 4.51,-4.508 2.488,0 4.508,2.02 4.508,4.508 v 19.129 c 0,4.521 -1.849,8.627 -4.819,11.6 -2.966,2.965 -7.083,4.814 -11.601,4.814 -4.517,0 -8.633,-1.85 -11.6,-4.814 -2.971,-2.973 -4.819,-7.078 -4.819,-11.6 v -19.129 c 0,-2.488 2.02,-4.508 4.508,-4.508 2.49,0 4.508,2.02 4.508,4.508 v 19.129 c 0,2.025 0.839,3.885 2.177,5.225 1.334,1.334 3.192,2.172 5.225,2.172 2.034,0 3.891,-0.838 5.225,-2.172 1.34,-1.34 2.177,-3.199 2.177,-5.225 v -19.129 z"
           id="path740" />
        <path
           fill-rule="evenodd"
           clip-rule="evenodd"
           fill="#3c2415"
           d="m 323.392,1350.555 c 0,-2.488 2.02,-4.508 4.508,-4.508 2.488,0 4.508,2.02 4.508,4.508 v 33.848 c 0,3.6 -1.478,6.871 -3.846,9.242 -2.37,2.389 -5.658,3.863 -9.264,3.863 -3.605,0 -6.893,-1.475 -9.263,-3.846 l -0.271,-0.297 c -2.208,-2.344 -3.575,-5.504 -3.575,-8.963 v -33.848 c 0,-2.488 2.02,-4.508 4.508,-4.508 2.49,0 4.51,2.02 4.51,4.508 v 33.848 c 0,1.055 0.404,2.02 1.055,2.746 l 0.147,0.141 c 0.74,0.738 1.769,1.203 2.89,1.203 1.123,0 2.15,-0.465 2.89,-1.203 0.74,-0.73 1.204,-1.76 1.204,-2.887 v -33.847 z"
           id="path742" />
        <path
           fill-rule="evenodd"
           clip-rule="evenodd"
           fill="#3c2415"
           d="m 323.392,1225.998 c 0,-2.486 2.02,-4.508 4.508,-4.508 2.488,0 4.508,2.021 4.508,4.508 v 49.441 c 0,2.49 -2.02,4.508 -4.508,4.508 -2.488,0 -4.508,-2.018 -4.508,-4.508 z m -8.186,49.441 c 0,2.49 -2.02,4.508 -4.51,4.508 -2.488,0 -4.508,-2.018 -4.508,-4.508 v -49.441 c 0,-2.486 2.02,-4.508 4.508,-4.508 2.49,0 4.51,2.021 4.51,4.508 z"
           id="path744" />
        <path
           fill-rule="evenodd"
           clip-rule="evenodd"
           fill="#3c2415"
           d="m 215.988,1251.254 c -1.757,1.75 -4.606,1.74 -6.356,-0.018 -1.749,-1.758 -1.74,-4.607 0.018,-6.357 l 9.503,-9.498 c 3.174,-3.191 7.389,-4.787 11.595,-4.783 4.201,-0.018 8.411,1.582 11.608,4.779 3.197,3.195 4.798,7.406 4.798,11.607 -0.014,4.205 -1.61,8.422 -4.793,11.604 l -9.512,9.514 c -1.759,1.756 -4.616,1.756 -6.375,0 -1.759,-1.758 -1.759,-4.617 0,-6.375 l 9.511,-9.512 c 1.448,-1.447 2.169,-3.35 2.169,-5.23 -0.017,-1.898 -0.739,-3.801 -2.173,-5.234 -1.434,-1.433 -3.336,-2.154 -5.233,-2.154 -1.881,-0.018 -3.783,0.703 -5.229,2.15 z m -11.369,32.328 -10.134,10.135 c -1.428,1.428 -3.332,2.145 -5.22,2.145 -1.903,0 -3.805,-0.717 -5.243,-2.168 l -0.203,-0.189 c -1.293,-1.402 -1.947,-3.223 -1.947,-5.033 0,-1.893 0.717,-3.793 2.155,-5.232 l 10.126,-10.123 c 1.757,-1.76 1.757,-4.617 0,-6.377 -1.758,-1.758 -4.617,-1.758 -6.375,0 l -10.135,10.135 c -3.188,3.188 -4.788,7.398 -4.788,11.598 0,4.057 1.515,8.131 4.512,11.291 l 0.315,0.324 c 3.196,3.188 7.403,4.793 11.582,4.793 4.197,0 8.407,-1.602 11.604,-4.797 l 10.125,-10.125 c 1.759,-1.758 1.759,-4.615 0,-6.375 -1.757,-1.76 -4.616,-1.76 -6.374,0 z"
           id="path746" />
        <path
           fill-rule="evenodd"
           clip-rule="evenodd"
           fill="#3c2415"
           d="m 296.229,1191.975 c 1.759,-1.758 4.618,-1.758 6.375,0 1.758,1.76 1.758,4.617 0,6.377 l -13.524,13.523 c -3.187,3.188 -7.402,4.777 -11.608,4.775 -4.202,0.016 -8.413,-1.584 -11.609,-4.779 -3.197,-3.197 -4.796,-7.408 -4.796,-11.609 0.014,-4.207 1.605,-8.42 4.792,-11.609 l 13.524,-13.523 c 1.758,-1.758 4.617,-1.758 6.375,0 1.758,1.758 1.758,4.615 0,6.373 l -13.524,13.525 c -1.446,1.447 -2.169,3.35 -2.169,5.234 0.019,1.898 0.74,3.801 2.173,5.234 1.433,1.433 3.337,2.154 5.235,2.154 1.883,0.018 3.787,-0.703 5.233,-2.15 z"
           id="path748" />
        <path
           fill-rule="evenodd"
           clip-rule="evenodd"
           fill="#3c2415"
           d="m 186.344,1297.18 c 1.757,-1.76 4.616,-1.76 6.373,0 1.759,1.758 1.759,4.615 0,6.373 l -24.289,24.254 c -2.507,2.332 -5.716,3.512 -8.908,3.512 -3.363,-0.021 -6.731,-1.297 -9.265,-3.832 -2.561,-2.561 -3.837,-5.918 -3.837,-9.268 0.015,-3.352 1.291,-6.709 3.824,-9.246 l 23.938,-23.957 c 1.757,-1.758 4.616,-1.758 6.375,0 1.757,1.758 1.757,4.617 0,6.375 l -23.934,23.936 c -0.798,0.791 -1.204,1.848 -1.204,2.893 0.017,1.045 0.415,2.098 1.204,2.885 0.811,0.811 1.866,1.217 2.898,1.217 0.988,-0.018 1.97,-0.363 2.732,-1.041 z"
           id="path750" />
        <path
           fill-rule="evenodd"
           clip-rule="evenodd"
           fill="#3c2415"
           d="m 274.42,1209.107 c 1.757,-1.76 4.616,-1.76 6.375,0 1.757,1.758 1.757,4.615 0,6.373 l -34.962,34.957 c -1.759,1.76 -4.616,1.76 -6.375,0 -1.759,-1.758 -1.759,-4.615 0,-6.375 z m -40.75,29.168 34.956,-34.963 c 1.759,-1.756 1.759,-4.615 0,-6.373 -1.757,-1.758 -4.616,-1.758 -6.375,0 l -34.956,34.961 c -1.759,1.758 -1.759,4.615 0,6.375 1.759,1.758 4.617,1.758 6.375,0 z"
           id="path752" />
        <path
           fill-rule="evenodd"
           clip-rule="evenodd"
           fill="#3c2415"
           d="m 180.626,1151.033 c -2.488,0 -4.508,-2.021 -4.508,-4.508 0,-2.49 2.02,-4.508 4.508,-4.508 h 13.449 c 4.521,0 8.627,1.848 11.6,4.816 2.967,2.967 4.814,7.084 4.814,11.602 0,4.518 -1.848,8.633 -4.814,11.598 -2.972,2.973 -7.079,4.82 -11.6,4.82 h -13.453 c -2.488,0 -4.508,-2.02 -4.508,-4.508 0,-2.49 2.02,-4.508 4.508,-4.508 h 13.453 c 2.024,0 3.885,-0.84 5.225,-2.178 1.334,-1.334 2.171,-3.193 2.171,-5.225 0,-2.035 -0.837,-3.891 -2.171,-5.225 -1.34,-1.34 -3.201,-2.178 -5.225,-2.178 h -13.449 z m -30.912,14.805 c 2.488,0 4.508,2.018 4.508,4.508 0,2.488 -2.02,4.508 -4.508,4.508 h -14.317 c -4.521,0 -8.629,-1.848 -11.6,-4.82 -2.967,-2.965 -4.814,-7.08 -4.814,-11.598 0,-4.518 1.848,-8.635 4.814,-11.602 2.971,-2.969 7.078,-4.816 11.6,-4.816 h 14.317 c 2.488,0 4.508,2.018 4.508,4.508 0,2.486 -2.02,4.508 -4.508,4.508 h -14.317 c -2.024,0 -3.886,0.838 -5.225,2.178 -1.335,1.334 -2.173,3.189 -2.173,5.225 0,2.031 0.838,3.891 2.173,5.225 1.339,1.338 3.201,2.178 5.225,2.178 h 14.317 z"
           id="path754" />
        <path
           fill-rule="evenodd"
           clip-rule="evenodd"
           fill="#3c2415"
           d="m 279.271,1165.838 c 2.488,0 4.508,2.018 4.508,4.508 0,2.488 -2.02,4.508 -4.508,4.508 h -19.128 c -4.522,0 -8.629,-1.848 -11.6,-4.82 -2.967,-2.965 -4.815,-7.08 -4.815,-11.598 0,-4.518 1.848,-8.635 4.815,-11.602 2.971,-2.969 7.077,-4.816 11.6,-4.816 h 19.128 c 2.488,0 4.508,2.018 4.508,4.508 0,2.486 -2.02,4.508 -4.508,4.508 h -19.128 c -2.024,0 -3.887,0.838 -5.225,2.178 -1.334,1.334 -2.173,3.189 -2.173,5.225 0,2.031 0.839,3.891 2.173,5.225 1.338,1.338 3.201,2.178 5.225,2.178 h 19.128 z"
           id="path756" />
        <path
           fill-rule="evenodd"
           clip-rule="evenodd"
           fill="#3c2415"
           d="m 127.178,1162.527 c 2.488,0 4.508,2.021 4.508,4.508 0,2.49 -2.02,4.51 -4.508,4.51 H 93.331 c -3.598,0 -6.871,-1.479 -9.242,-3.846 -2.389,-2.371 -3.863,-5.658 -3.863,-9.264 0,-3.607 1.475,-6.895 3.845,-9.266 l 0.298,-0.27 c 2.344,-2.209 5.504,-3.574 8.962,-3.574 h 33.847 c 2.488,0 4.508,2.02 4.508,4.508 0,2.488 -2.02,4.508 -4.508,4.508 H 93.331 c -1.056,0 -2.02,0.404 -2.746,1.055 l -0.14,0.148 c -0.74,0.74 -1.204,1.768 -1.204,2.891 0,1.123 0.464,2.15 1.204,2.889 0.73,0.74 1.759,1.203 2.886,1.203 z"
           id="path758" />
        <path
           fill-rule="evenodd"
           clip-rule="evenodd"
           fill="#3c2415"
           d="m 251.733,1162.527 c 2.49,0 4.51,2.021 4.51,4.508 0,2.49 -2.02,4.51 -4.51,4.51 h -49.439 c -2.49,0 -4.508,-2.02 -4.508,-4.51 0,-2.486 2.019,-4.508 4.508,-4.508 z m -49.439,-8.185 c -2.49,0 -4.508,-2.02 -4.508,-4.508 0,-2.488 2.019,-4.508 4.508,-4.508 h 49.439 c 2.49,0 4.51,2.02 4.51,4.508 0,2.488 -2.02,4.508 -4.51,4.508 z"
           id="path760" />
        <path
           fill-rule="evenodd"
           clip-rule="evenodd"
           fill="#3c2415"
           d="m 226.479,1055.125 c -1.749,-1.758 -1.74,-4.607 0.018,-6.355 1.759,-1.75 4.608,-1.74 6.356,0.018 l 9.499,9.504 c 3.197,3.176 4.788,7.389 4.784,11.594 0.019,4.201 -1.583,8.412 -4.779,11.609 -3.197,3.195 -7.407,4.797 -11.608,4.797 -4.206,-0.016 -8.417,-1.605 -11.604,-4.793 l -9.513,-9.514 c -1.757,-1.756 -1.757,-4.615 0,-6.373 1.758,-1.76 4.617,-1.76 6.375,0 l 9.513,9.512 c 1.447,1.447 3.349,2.168 5.229,2.168 1.897,-0.018 3.8,-0.738 5.233,-2.172 1.433,-1.434 2.156,-3.336 2.156,-5.234 0.017,-1.879 -0.704,-3.781 -2.152,-5.229 z m -32.327,-11.369 -10.135,-10.135 c -1.429,-1.428 -2.146,-3.332 -2.146,-5.221 0,-1.902 0.717,-3.805 2.169,-5.244 l 0.188,-0.201 c 1.403,-1.295 3.224,-1.947 5.036,-1.947 1.888,0 3.792,0.715 5.229,2.154 l 10.125,10.125 c 1.759,1.76 4.618,1.76 6.375,0 1.759,-1.758 1.759,-4.617 0,-6.375 l -10.133,-10.135 c -3.188,-3.188 -7.398,-4.787 -11.596,-4.787 -4.058,0 -8.133,1.516 -11.292,4.512 l -0.325,0.318 c -3.187,3.195 -4.792,7.402 -4.792,11.58 0,4.197 1.6,8.408 4.796,11.605 l 10.126,10.125 c 1.757,1.758 4.616,1.758 6.375,0 1.757,-1.759 1.757,-4.616 0,-6.374 z"
           id="path762" />
        <path
           fill-rule="evenodd"
           clip-rule="evenodd"
           fill="#3c2415"
           d="m 285.757,1135.367 c 1.758,1.758 1.758,4.615 0,6.375 -1.757,1.756 -4.616,1.756 -6.375,0 l -13.524,-13.525 c -3.187,-3.188 -4.778,-7.404 -4.773,-11.609 -0.019,-4.201 1.581,-8.412 4.778,-11.607 3.196,-3.197 7.408,-4.797 11.609,-4.797 4.206,0.014 8.421,1.604 11.608,4.793 l 13.524,13.523 c 1.758,1.758 1.758,4.615 0,6.375 -1.757,1.758 -4.616,1.758 -6.375,0 l -13.524,-13.525 c -1.446,-1.447 -3.35,-2.168 -5.233,-2.168 -1.898,0.018 -3.801,0.74 -5.235,2.174 -1.434,1.434 -2.155,3.334 -2.155,5.232 -0.019,1.881 0.704,3.787 2.15,5.234 z"
           id="path764" />
        <path
           fill-rule="evenodd"
           clip-rule="evenodd"
           fill="#3c2415"
           d="m 180.555,1025.479 c 1.757,1.758 1.757,4.617 0,6.375 -1.758,1.76 -4.617,1.76 -6.375,0 l -24.255,-24.291 c -2.331,-2.506 -3.512,-5.715 -3.512,-8.908 0.022,-3.361 1.299,-6.73 3.833,-9.262 2.561,-2.561 5.919,-3.838 9.269,-3.838 3.35,0.014 6.708,1.289 9.246,3.822 l 23.956,23.939 c 1.759,1.758 1.759,4.615 0,6.375 -1.757,1.756 -4.616,1.756 -6.373,0 l -23.935,-23.936 c -0.793,-0.797 -1.848,-1.203 -2.894,-1.203 -1.046,0.02 -2.096,0.414 -2.886,1.203 -0.812,0.813 -1.216,1.867 -1.216,2.898 0.017,0.988 0.365,1.971 1.041,2.732 z"
           id="path766" />
        <path
           fill-rule="evenodd"
           clip-rule="evenodd"
           fill="#3c2415"
           d="m 268.626,1113.557 c 1.759,1.758 1.759,4.615 0,6.373 -1.757,1.758 -4.616,1.758 -6.375,0 l -34.956,-34.959 c -1.759,-1.76 -1.759,-4.617 0,-6.377 1.759,-1.758 4.616,-1.758 6.375,0 z m -29.168,-40.75 34.962,34.957 c 1.757,1.756 4.616,1.756 6.375,0 1.757,-1.76 1.757,-4.617 0,-6.377 l -34.962,-34.955 c -1.759,-1.758 -4.616,-1.758 -6.375,0 -1.759,1.758 -1.758,4.617 0,6.375 z"
           id="path768" />
        <path
           fill-rule="evenodd"
           clip-rule="evenodd"
           fill="#3c2415"
           d="m 457.51,1098.729 c -0.982,-2.271 0.068,-4.918 2.34,-5.9 2.272,-0.984 4.918,0.066 5.901,2.34 4.257,9.844 7.555,20.201 9.766,30.926 2.163,10.477 3.298,21.305 3.298,32.342 0,3.016 -0.098,6.145 -0.284,9.357 -0.18,3.188 -0.46,6.309 -0.806,9.338 -0.28,2.467 -2.515,4.24 -4.982,3.963 -2.465,-0.281 -4.242,-2.516 -3.961,-4.982 0.342,-2.961 0.603,-5.91 0.771,-8.813 0.162,-2.805 0.247,-5.771 0.247,-8.863 0,-10.506 -1.067,-20.725 -3.091,-30.547 -2.089,-10.142 -5.199,-19.908 -9.199,-29.161 z m -12.347,-22.862 c -1.407,-2.037 -0.893,-4.842 1.146,-6.248 2.037,-1.406 4.842,-0.893 6.248,1.145 l 2.909,4.379 c 0.883,1.369 1.792,2.889 2.731,4.566 1.204,2.168 0.424,4.904 -1.745,6.107 -2.169,1.203 -4.905,0.424 -6.107,-1.744 -0.691,-1.234 -1.535,-2.623 -2.472,-4.107 z"
           id="path770" />
      </g>
      <path
         fill-rule="evenodd"
         clip-rule="evenodd"
         fill="#ffffff"
         d="m 195.111,1057.902 c 0.875,-0.875 2.308,-0.875 3.183,0 0.874,0.873 0.874,2.307 0,3.182 0,0 -0.887,1.072 -2.452,3.242 l -3.644,-2.623 c 1.764,-2.445 2.913,-3.801 2.913,-3.801 z m -9.84,14.53 c 0.622,-1.072 1.997,-1.438 3.07,-0.816 1.073,0.623 1.438,1.998 0.815,3.07 -4.697,8.053 -10.319,19.422 -14.724,33.555 -4.405,14.135 -7.6,31.049 -7.452,50.176 0.01,1.242 -0.986,2.254 -2.227,2.264 -1.239,0.01 -2.254,-0.986 -2.263,-2.227 -0.153,-19.662 3.124,-37.031 7.651,-51.547 4.526,-14.518 10.301,-26.198 15.13,-34.475 z"
         id="path774" />
    </g>
  </g>
</svg>
